<?xml version="1.0" encoding="utf-8"?>
<!-- Generator: Adobe Illustrator 12.0.0, SVG Export Plug-In  -->
<!DOCTYPE svg PUBLIC "-//W3C//DTD SVG 1.1//EN" "http://www.w3.org/Graphics/SVG/1.1/DTD/svg11.dtd" [
	<!ENTITY ns_flows "http://ns.adobe.com/Flows/1.0/">
	<!ENTITY ns_svg "http://www.w3.org/2000/svg">
	<!ENTITY ns_xlink "http://www.w3.org/1999/xlink">
]>
<svg  version="1.1" xmlns="&ns_svg;" xmlns:xlink="&ns_xlink;" xmlns:a="http://ns.adobe.com/AdobeSVGViewerExtensions/3.0/"
	 width="475" height="107" viewBox="0 0 475 107" enable-background="new 0 0 475 107" xml:space="preserve">
<defs>
</defs>
<g>
	<path fill="#FFFFFF" d="M146.241,74.287l8.581,5.771c-4.161,6.138-11.181,10.298-19.19,10.298c-4.68,0-9.048-1.404-12.637-3.849
		c-6.241-4.108-10.297-11.129-10.297-19.138c0-7.956,4.056-15.029,10.297-19.137c3.589-2.392,7.957-3.796,12.637-3.796
		c8.009,0,15.029,4.108,19.19,10.296l-8.581,5.721c-2.288-3.433-6.189-5.721-10.609-5.721c-6.969,0-12.637,5.669-12.637,12.637
		c0,7.021,5.668,12.688,12.637,12.688C140.052,80.058,143.953,77.77,146.241,74.287"/>
	<path fill="#FFFFFF" d="M190.75,67.37c0-6.968-4.42-12.637-9.933-12.637c-5.512,0-9.985,5.669-9.985,12.637v19.97v3.017h-10.296
		V67.37V27.587h10.296V47.4c2.912-1.872,6.345-2.964,9.985-2.964c11.181,0,20.23,10.297,20.23,22.934v22.986H190.75v-3.017V67.37z"
		/>
	<path fill="#FFFFFF" d="M239.481,65.238c0-5.773-4.785-10.505-10.557-10.505c-5.72,0-10.505,4.732-10.505,10.505v14.821v10.297
		h-10.297V65.238V44.436h10.297v2.913c3.12-1.873,6.657-2.913,10.505-2.913c3.848,0,7.437,1.04,10.557,2.913
		c6.136,3.588,10.297,10.296,10.297,17.889v25.118h-10.297V80.059V65.238z"/>
	<rect x="256.379" y="44.436" fill="#FFFFFF" width="10.297" height="45.92"/>
	<path fill="#FFFFFF" d="M306.405,74.287l8.581,5.771c-4.161,6.138-11.181,10.298-19.189,10.298c-4.681,0-9.049-1.404-12.638-3.849
		c-6.24-4.108-10.297-11.129-10.297-19.138c0-7.956,4.057-15.029,10.297-19.137c3.589-2.392,7.957-3.796,12.638-3.796
		c8.009,0,15.028,4.108,19.189,10.296l-8.581,5.721c-2.288-3.433-6.188-5.721-10.608-5.721c-6.97,0-12.638,5.669-12.638,12.637
		c0,7.021,5.668,12.688,12.638,12.688C300.217,80.058,304.117,77.77,306.405,74.287"/>
	<path fill="#FFFFFF" d="M320.02,67.37c0-7.956,4.107-15.029,10.297-19.138c3.64-2.391,8.009-3.796,12.688-3.796
		c4.681,0,8.997,1.405,12.638,3.796v-3.796h10.297V67.37v22.986h-10.297v-3.849c-3.641,2.444-7.957,3.849-12.638,3.849
		c-4.68,0-9.049-1.404-12.688-3.849C324.127,82.399,320.02,75.379,320.02,67.37 M355.643,67.37c0-6.968-5.668-12.637-12.638-12.637
		c-7.02,0-12.688,5.669-12.688,12.637c0,7.021,5.669,12.689,12.688,12.689C349.975,80.059,355.643,74.391,355.643,67.37"/>
	<rect x="411.387" y="27.587" fill="#FFFFFF" width="10.297" height="62.769"/>
	<polygon fill="#FFFFFF" points="463.695,44.436 475.292,44.436 451.37,90.356 442.581,107.153 430.932,107.153 445.546,79.227 
		427.396,44.436 438.993,44.436 451.37,68.046 	"/>
	<path fill="#FFFFFF" d="M261.527,27.586c3.38,0,6.084,2.704,6.084,6.084c0,3.319-2.704,6.085-6.084,6.085
		c-3.319,0-6.084-2.766-6.084-6.085C255.443,30.291,258.208,27.586,261.527,27.586"/>
	<path fill="#03E26D" d="M397.367,75.385c4.207,0,7.572,3.366,7.572,7.572c0,4.13-3.365,7.572-7.572,7.572
		c-4.13,0-7.572-3.442-7.572-7.572C389.795,78.751,393.237,75.385,397.367,75.385"/>
	<rect x="373.015" y="27.587" fill="#FFFFFF" width="10.297" height="62.769"/>
	<path fill="#FFFFFF" d="M88.727,70.802h6.812h10.505c0.156-1.092,0.26-2.288,0.26-3.432c0-2.34-0.364-4.68-1.04-6.813
		c-0.624-2.079-1.56-4.056-2.705-5.824c-4.16-6.188-11.18-10.297-19.189-10.297c-4.68,0-9.049,1.404-12.637,3.797
		c-4.368,2.912-7.645,7.228-9.309,12.324c-0.624,2.133-0.988,4.473-0.988,6.813c0,1.144,0.104,2.34,0.208,3.432
		c1.04,6.605,4.785,12.221,10.089,15.705c3.588,2.445,7.957,3.85,12.637,3.85c8.009,0,15.029-4.16,19.189-10.297l-8.58-5.772
		c-2.288,3.484-6.189,5.772-10.609,5.772c-5.773,0-10.713-3.9-12.169-9.257h7.229H88.727z M83.37,54.306
		c7.349,0,11.298,6.294,11.684,7.683H71.503C71.841,60.552,75.838,54.306,83.37,54.306"/>
	<path fill="#FFFFFF" d="M50.401,38.432H64.77V28.107H25.518v10.325h14.368v41.296c-16.802-2.544-29.722-17.083-29.722-34.584
		c0-19.288,15.692-34.98,34.979-34.98c16.983,0,31.172,12.167,34.323,28.241h10.317C86.519,16.698,67.746,0,45.143,0
		C20.251,0,0,20.252,0,45.144c0,24.892,20.251,45.145,45.143,45.145c1.781,0,3.535-0.116,5.263-0.317L50.401,38.432z"/>
</g>
</svg>
