<?xml version="1.0" encoding="utf-8"?>
<!-- Generator: Adobe Illustrator 26.5.0, SVG Export Plug-In . SVG Version: 6.00 Build 0)  -->
<svg version="1.1" xmlns="http://www.w3.org/2000/svg" xmlns:xlink="http://www.w3.org/1999/xlink" x="0px" y="0px"
	 viewBox="0 0 424.61 168.57" style="enable-background:new 0 0 424.61 168.57;" xml:space="preserve">
<style type="text/css">
	.st0{fill:none;}
	.st1{display:none;}
	.st2{display:inline;}
	.st3{fill:#004987;}
	.st4{fill:#6AAAE4;}
</style>
<g id="GUIDES">
	<rect x="-39.69" y="-167.71" class="st0" width="504" height="504"/>
	<rect x="-39.69" y="-167.71" class="st0" width="504" height="504"/>
</g>
<g id="BLACK_BKGD" class="st1">
	<rect x="-39.69" y="-167.71" class="st2" width="504" height="504"/>
</g>
<g id="VIRTRU">
	<g>
		<g>
			<path class="st3" d="M245.16,110.8c-3.57,0-6.47-2.9-6.47-6.47V67.34c0-3.57,2.9-6.47,6.47-6.47s6.47,2.9,6.47,6.47v36.98
				C251.63,107.9,248.73,110.8,245.16,110.8z"/>
			<path class="st3" d="M271.38,67.55"/>
			<path class="st3" d="M271.38,110.8c-3.57,0-6.47-2.9-6.47-6.47V64.45l3.92-1.68c1.29-0.56,12.92-5.32,23.08-1.48
				c3.34,1.26,5.03,5,3.76,8.34c-1.26,3.34-5,5.03-8.34,3.77c-2.84-1.07-6.57-0.65-9.49,0.04v30.9
				C277.85,107.9,274.95,110.8,271.38,110.8z"/>
			<path class="st3" d="M323.5,60.87h-6.87v-4c0-3.57-2.9-6.47-6.47-6.47c-3.57,0-6.47,2.9-6.47,6.47v47.46
				c0,3.57,2.9,6.47,6.47,6.47c3.57,0,6.47-2.9,6.47-6.47V73.81h6.87c3.57,0,6.47-2.9,6.47-6.47S327.07,60.87,323.5,60.87z"/>
			<circle class="st3" cx="245.26" cy="47.62" r="6.47"/>
			<path class="st3" d="M344.41,68.09"/>
			<path class="st3" d="M344.41,110.8L344.41,110.8c-3.57,0-6.47-2.9-6.47-6.47l0-39.87l4.11-1.61c1.28-0.5,12.84-4.8,22.89-1.01
				c3.34,1.26,5.03,5,3.76,8.34c-1.26,3.34-5,5.03-8.34,3.76c-2.85-1.08-6.55-0.77-9.48-0.19l0,30.58
				C350.88,107.9,347.98,110.8,344.41,110.8z"/>
			<path class="st3" d="M396.25,110.8c-10.72,0-19.45-8.72-19.45-19.44V67.34c0-3.57,2.9-6.47,6.47-6.47c3.57,0,6.47,2.9,6.47,6.47
				v24.01c0,3.59,2.92,6.5,6.5,6.5c3.58,0,6.5-2.92,6.5-6.5V67.34c0-3.57,2.9-6.47,6.47-6.47c3.57,0,6.47,2.9,6.47,6.47v24.01
				C415.69,102.07,406.97,110.8,396.25,110.8z"/>
			<path class="st3" d="M185.57,111.91V62.72h12.94v31.43v0.42c7.4-3.76,17.35-11.7,17.35-27.24c0-3.57,2.9-6.47,6.47-6.47
				s6.47,2.9,6.47,6.47c0,27.81-23.18,39.78-35.38,42.95C193.41,110.29,188.38,111.55,185.57,111.91z"/>
		</g>
	</g>
</g>
<g id="V_00000150815147831699412820000002538107907449541296_">
	<path class="st3" d="M66.12,62.72h-0.02v49.18c2.81-0.36,7.85-1.62,7.85-1.62c12.2-3.17,35.38-15.13,35.38-42.95
		c0-3.57-2.9-6.47-6.47-6.47c-3.57,0-6.47,2.9-6.47,6.47c0,15.54-9.95,23.48-17.35,27.24v-0.42V62.72h-0.02H66.12z"/>
</g>
<g id="CIRCLE">
	<path class="st3" d="M146.12,45.34c-0.16,2.66-1.45,5.22-3.77,6.92c-2.56,1.87-5.76,2.23-8.54,1.25c-0.12-0.19-0.25-0.38-0.37-0.58
		c6.43,10.34,9.76,22.73,8.78,35.8c-2.46,32.74-30.99,57.28-63.73,54.82c-32.74-2.46-57.28-30.99-54.82-63.73
		c2.46-32.74,30.99-57.28,63.73-54.82c7.32,0.55,14.22,2.42,20.51,5.34c-0.2-0.09-0.39-0.19-0.59-0.28c2.6,1.23,5.8,0.87,8.08-1.17
		c3.05-2.72,3.32-7.4,0.6-10.45c-0.53-0.6-1.15-1.07-1.81-1.45c-7.86-3.67-16.49-6.02-25.65-6.71C47.7,7.22,12.09,37.85,9.02,78.7
		c-3.07,40.85,27.56,76.46,68.41,79.53c40.85,3.07,76.46-27.56,79.53-68.41C158.19,73.59,154.07,58.21,146.12,45.34z"/>
</g>
<g id="ACCESS_BAR">
	<path class="st4" d="M145.56,44.45c-0.25-0.39-0.49-0.78-0.75-1.16c-0.18-0.26-0.36-0.52-0.54-0.78c-0.34-0.49-0.67-0.99-1.02-1.47
		c-1.01-1.4-2.06-2.76-3.16-4.08c0-0.01,0-0.02,0-0.04c-0.21-0.26-0.44-0.51-0.66-0.76c-0.08-0.1-0.16-0.2-0.25-0.3
		c-0.12-0.14-0.24-0.27-0.36-0.4c-0.36-0.41-0.72-0.82-1.09-1.22c-0.34-0.37-0.69-0.74-1.03-1.1c-0.25-0.27-0.51-0.53-0.76-0.8
		c-0.57-0.58-1.15-1.15-1.74-1.71c-0.05-0.05-0.11-0.1-0.16-0.16c-3.34-3.17-6.98-6.05-10.89-8.57c0.03,0.02,0.05,0.04,0.07,0.06
		c-1.49-0.97-3.03-1.88-4.59-2.74c-0.33-0.18-0.67-0.36-1.01-0.53c-0.08-0.04-0.16-0.08-0.25-0.11c-1.04-0.54-2.09-1.06-3.15-1.56
		c0.66,0.38,1.27,0.86,1.81,1.45c2.72,3.05,2.45,7.73-0.6,10.45c-2.28,2.04-5.48,2.4-8.08,1.17c0.2,0.09,0.39,0.19,0.59,0.28
		c0.27,0.13,0.54,0.25,0.81,0.39c0.68,0.33,1.36,0.67,2.02,1.02c3.96,2.1,7.66,4.63,11.03,7.54c0.64,0.56,1.27,1.12,1.89,1.71
		c0.04,0.04,0.08,0.08,0.12,0.11c0.5,0.47,0.99,0.96,1.47,1.44c0.21,0.21,0.41,0.42,0.61,0.63c0.27,0.29,0.54,0.58,0.81,0.87
		c0.32,0.35,0.65,0.7,0.96,1.06c0.01,0.01,0.02,0.03,0.03,0.04c1.59,1.82,3.06,3.73,4.42,5.72c0.17,0.25,0.34,0.49,0.5,0.74
		c0.28,0.43,0.56,0.86,0.83,1.3c0.12,0.19,0.25,0.38,0.37,0.58c2.78,0.98,5.98,0.62,8.54-1.25c2.31-1.69,3.61-4.26,3.77-6.92
		C145.93,45.04,145.75,44.74,145.56,44.45z"/>
</g>
</svg>
