<?xml version="1.0" encoding="UTF-8"?><svg id="Layer_1" xmlns="http://www.w3.org/2000/svg" width="23.6221in" height="19.5454in" xmlns:xlink="http://www.w3.org/1999/xlink" viewBox="0 0 1700.7899 1407.2664"><defs><style>.cls-1 {
        fill: none;
      }

      .cls-2 {
        fill: #eabb58;
      }

      .cls-2, .cls-3, .cls-4, .cls-5, .cls-6, .cls-7, .cls-8, .cls-9, .cls-10, .cls-11, .cls-12, .cls-13, .cls-14, .cls-15, .cls-16, .cls-17, .cls-18, .cls-19, .cls-20, .cls-21, .cls-22, .cls-23, .cls-24, .cls-25, .cls-26, .cls-27, .cls-28, .cls-29, .cls-30, .cls-31, .cls-32, .cls-33, .cls-34, .cls-35, .cls-36, .cls-37, .cls-38, .cls-39, .cls-40, .cls-41, .cls-42, .cls-43, .cls-44, .cls-45, .cls-46, .cls-47, .cls-48, .cls-49, .cls-50, .cls-51, .cls-52, .cls-53, .cls-54, .cls-55, .cls-56, .cls-57, .cls-58, .cls-59, .cls-60, .cls-61, .cls-62, .cls-63, .cls-64, .cls-65, .cls-66, .cls-67, .cls-68, .cls-69, .cls-70, .cls-71, .cls-72, .cls-73, .cls-74, .cls-75, .cls-76, .cls-77, .cls-78, .cls-79, .cls-80, .cls-81, .cls-82, .cls-83, .cls-84, .cls-85, .cls-86, .cls-87, .cls-88, .cls-89, .cls-90, .cls-91, .cls-92, .cls-93, .cls-94, .cls-95, .cls-96, .cls-97, .cls-98, .cls-99, .cls-100, .cls-101, .cls-102, .cls-103, .cls-104, .cls-105, .cls-106, .cls-107, .cls-108, .cls-109, .cls-110, .cls-111, .cls-112, .cls-113, .cls-114, .cls-115, .cls-116, .cls-117, .cls-118, .cls-119, .cls-120, .cls-121, .cls-122, .cls-123, .cls-124, .cls-125, .cls-126, .cls-127, .cls-128, .cls-129, .cls-130, .cls-131, .cls-132, .cls-133, .cls-134, .cls-135, .cls-136, .cls-137, .cls-138, .cls-139, .cls-140, .cls-141, .cls-142, .cls-143, .cls-144, .cls-145, .cls-146, .cls-147, .cls-148, .cls-149, .cls-150, .cls-151, .cls-152, .cls-153, .cls-154, .cls-155, .cls-156, .cls-157, .cls-158 {
        fill-rule: evenodd;
      }

      .cls-3 {
        fill: #efc15f;
      }

      .cls-4 {
        fill: #e6b754;
      }

      .cls-5 {
        fill: #e2b34f;
      }

      .cls-6 {
        fill: #ebbc59;
      }

      .cls-7 {
        fill: #e5b755;
      }

      .cls-8 {
        fill: #bd8f2c;
      }

      .cls-9 {
        fill: #e1b350;
      }

      .cls-10 {
        fill: #e7b956;
      }

      .cls-11 {
        fill: #104378;
      }

      .cls-12 {
        fill: #e8ba58;
      }

      .cls-13 {
        fill: #dbac47;
      }

      .cls-14 {
        fill: #dcae4c;
      }

      .cls-15 {
        fill: #e7b855;
      }

      .cls-16 {
        fill: #f3c563;
      }

      .cls-17 {
        fill: #c39531;
      }

      .cls-18 {
        fill: #f0c15f;
      }

      .cls-19 {
        fill: #e3b450;
      }

      .cls-20 {
        fill: #b58724;
      }

      .cls-21 {
        fill: #dcad48;
      }

      .cls-22 {
        fill: #e2b450;
      }

      .cls-23 {
        fill: #ebbd5b;
      }

      .cls-24 {
        fill: #dfb14d;
      }

      .cls-25 {
        fill: #b48623;
      }

      .cls-26 {
        fill: #f1c361;
      }

      .cls-27 {
        fill: #ddaf4a;
      }

      .cls-28 {
        fill: #e0b24e;
      }

      .cls-29 {
        fill: #c89a37;
      }

      .cls-30 {
        fill: #dcae4b;
      }

      .cls-31 {
        fill: #b58723;
      }

      .cls-32 {
        fill: #b88a27;
      }

      .cls-33 {
        fill: #e1b351;
      }

      .cls-34 {
        fill: #dfb04c;
      }

      .cls-35 {
        fill: #e8b956;
      }

      .cls-36 {
        fill: #cb9d39;
      }

      .cls-37 {
        fill: #e7b955;
      }

      .cls-38 {
        fill: #deb04b;
      }

      .cls-39 {
        fill: #e0b24f;
      }

      .cls-40 {
        fill: #d9ab48;
      }

      .cls-41 {
        fill: #e9bb59;
      }

      .cls-42 {
        fill: #c0922e;
      }

      .cls-43 {
        fill: #b78925;
      }

      .cls-44 {
        fill: #b68825;
      }

      .cls-45 {
        fill: #bf912e;
      }

      .cls-46 {
        fill: #c1932f;
      }

      .cls-47 {
        fill: #bb8d29;
      }

      .cls-48 {
        fill: #dbad48;
      }

      .cls-49 {
        fill: #c99b38;
      }

      .cls-50 {
        fill: #ba8c29;
      }

      .cls-51 {
        fill: #deb04e;
      }

      .cls-52 {
        fill: #b48622;
      }

      .cls-53 {
        fill: #e6b854;
      }

      .cls-54 {
        fill: #edbf5c;
      }

      .cls-55 {
        fill: #c29431;
      }

      .cls-56 {
        fill: #e5b754;
      }

      .cls-57 {
        fill: #e5b753;
      }

      .cls-58 {
        fill: #d3a542;
      }

      .cls-59 {
        fill: #b98b27;
      }

      .cls-60 {
        fill: #dbad4a;
      }

      .cls-61 {
        fill: #c29430;
      }

      .cls-62 {
        fill: #f4c663;
      }

      .cls-63 {
        fill: #f2c462;
      }

      .cls-64 {
        fill: #e6b856;
      }

      .cls-65 {
        fill: #cfa13e;
      }

      .cls-66 {
        fill: #eec05e;
      }

      .cls-67 {
        fill: #f4c664;
      }

      .cls-68 {
        fill: #bf912d;
      }

      .cls-69 {
        fill: #dfb14f;
      }

      .cls-70 {
        fill: #cc9e3b;
      }

      .cls-71 {
        fill: #ebbd5a;
      }

      .cls-72 {
        fill: #cd9f3c;
      }

      .cls-159 {
        clip-path: url(#clippath-1);
      }

      .cls-160 {
        clip-path: url(#clippath-2);
      }

      .cls-73 {
        fill: #d8aa47;
      }

      .cls-74 {
        fill: #b28421;
      }

      .cls-75 {
        fill: #f2c461;
      }

      .cls-76 {
        fill: #f0c260;
      }

      .cls-77 {
        fill: #d7a946;
      }

      .cls-78 {
        fill: #e2b451;
      }

      .cls-79 {
        fill: #efc15e;
      }

      .cls-80 {
        fill: #bc8e2a;
      }

      .cls-81 {
        fill: #bb8d2a;
      }

      .cls-82 {
        fill: #ddae4a;
      }

      .cls-83 {
        fill: #daab46;
      }

      .cls-84 {
        fill: #deb04c;
      }

      .cls-85 {
        fill: #e1b24e;
      }

      .cls-86 {
        fill: #b78926;
      }

      .cls-87 {
        fill: #cea03d;
      }

      .cls-88 {
        fill: #deb04d;
      }

      .cls-89 {
        fill: #b68824;
      }

      .cls-90 {
        fill: #e9ba57;
      }

      .cls-91 {
        fill: #c0922f;
      }

      .cls-92 {
        fill: #d5a744;
      }

      .cls-93 {
        fill: #e3b551;
      }

      .cls-94 {
        fill: #eabc5a;
      }

      .cls-95 {
        fill: #ecbd5a;
      }

      .cls-96 {
        fill: #e8ba56;
      }

      .cls-97 {
        fill: #ddaf4c;
      }

      .cls-98 {
        fill: #bd8f2b;
      }

      .cls-99 {
        fill: #c39532;
      }

      .cls-100 {
        fill: #edbf5d;
      }

      .cls-101 {
        fill: #ba8c28;
      }

      .cls-102 {
        fill: #f0c25f;
      }

      .cls-103 {
        fill: #dcae49;
      }

      .cls-104 {
        fill: #c59734;
      }

      .cls-105 {
        fill: #c69834;
      }

      .cls-106 {
        fill: #ca9c39;
      }

      .cls-107 {
        fill: #f5c765;
      }

      .cls-108 {
        fill: #f3c562;
      }

      .cls-109 {
        fill: #c19330;
      }

      .cls-110 {
        fill: #daab47;
      }

      .cls-111 {
        fill: #b88a26;
      }

      .cls-112 {
        fill: #c79936;
      }

      .cls-113 {
        fill: #b38521;
      }

      .cls-114 {
        fill: #deaf4b;
      }

      .cls-115 {
        fill: #dcad49;
      }

      .cls-116 {
        fill: #ecbe5b;
      }

      .cls-117 {
        fill: #e9bb58;
      }

      .cls-118 {
        fill: #cb9d3a;
      }

      .cls-119 {
        fill: #dfb14c;
      }

      .cls-120 {
        fill: #e9bb57;
      }

      .cls-121 {
        fill: #c69835;
      }

      .cls-122 {
        fill: #e1b34f;
      }

      .cls-123 {
        fill: #e4b654;
      }

      .cls-124 {
        fill: #d0a23f;
      }

      .cls-125 {
        fill: #e3b553;
      }

      .cls-126 {
        fill: #c79935;
      }

      .cls-127 {
        fill: #dbac48;
      }

      .cls-128 {
        fill: #d9aa45;
      }

      .cls-129 {
        fill: #ecbe5c;
      }

      .cls-130 {
        fill: #d2a441;
      }

      .cls-131 {
        fill: #e8ba57;
      }

      .cls-132 {
        fill: #d5a745;
      }

      .cls-133 {
        fill: #f1c360;
      }

      .cls-134 {
        fill: #b38522;
      }

      .cls-135 {
        fill: #e5b652;
      }

      .cls-136 {
        fill: #b28420;
      }

      .cls-137 {
        fill: #d9aa46;
      }

      .cls-138 {
        fill: #d4a643;
      }

      .cls-139 {
        fill: #e4b552;
      }

      .cls-140 {
        fill: #c49633;
      }

      .cls-141 {
        fill: #be902c;
      }

      .cls-142 {
        fill: #d7a947;
      }

      .cls-143 {
        fill: #eebf5d;
      }

      .cls-144 {
        fill: #deaf4a;
      }

      .cls-145 {
        fill: #daac49;
      }

      .cls-146 {
        fill: #bc8e2b;
      }

      .cls-147 {
        fill: #ddae49;
      }

      .cls-148 {
        fill: #d1a340;
      }

      .cls-149 {
        fill: #e0b14d;
      }

      .cls-150 {
        fill: #eabc59;
      }

      .cls-161 {
        clip-path: url(#clippath);
      }

      .cls-151 {
        fill: #e4b652;
      }

      .cls-152 {
        fill: #e3b552;
      }

      .cls-153 {
        fill: #daac47;
      }

      .cls-154 {
        fill: #daac4a;
      }

      .cls-155 {
        fill: #b98b28;
      }

      .cls-156 {
        fill: #eec05d;
      }

      .cls-157 {
        fill: #d6a845;
      }

      .cls-158 {
        fill: #be902d;
      }</style><clipPath id="clippath"><path class="cls-1" d="M1424.72,1134.4064c18.23,0,34.13,3.63,47.76,10.86s24.1801,17.35,31.66,30.42c7.46,13.04,11.2,28.12,11.2,45.1801s-3.74,31.92-11.2,45.0699c-7.48,13.12-18.09,23.3-31.78,30.53-13.72,7.23-29.59,10.83-47.65,10.83h-64.77v-172.89h64.78ZM1422,1270.8664c15.9301,0,28.3199-4.37,37.1899-13.0699s13.29-21,13.29-36.9399-4.42-28.3199-13.29-37.1899-21.26-13.29-37.1899-13.29h-19.96v100.49h19.96ZM1531.84,1220.6065c0-17.0601,3.6899-32.29,11.08-45.67,7.4-13.38,17.6899-23.8101,30.9-31.29,13.24-7.46,28.2-11.2,44.96-11.2,20.52,0,38.1,5.41,52.7,16.24,14.63,10.86,24.38,25.63,29.3101,44.33h-46.29c-3.46-7.23-8.33-12.73-14.66-16.5-6.3199-3.77-13.52-5.67-21.5699-5.67-12.95,0-23.47,4.54-31.52,13.55-8.02,9.04-12.05,21.09-12.05,36.2s4.03,27.1801,12.05,36.2c8.05,9.04,18.5699,13.55,31.52,13.55,8.05,0,15.25-1.87,21.5699-5.67,6.3199-3.77,11.2-9.27,14.66-16.5h46.29c-4.9301,18.74-14.6801,33.45-29.3101,44.22-14.6,10.74-32.17,16.13-52.7,16.13-16.75,0-31.72-3.74-44.96-11.2-13.21-7.48-23.5-17.86-30.9-31.15-7.4-13.3199-11.08-28.49-11.08-45.58v.0101Z"/></clipPath><clipPath id="clippath-1"><path class="cls-1" d="M850.39,4.5164c289.59,0,524.41,234.82,524.41,524.41s-234.8201,524.4099-524.41,524.4099-524.41-234.8201-524.41-524.41S560.8001,4.5164,850.3901,4.5164h0ZM1205.97,173.3765c-91.02-91.02-216.74-147.32-355.58-147.32s-264.56,56.3-355.58,147.32c-90.99,90.99-147.29,216.71-147.29,355.55s56.3,264.5601,147.29,355.58c91.02,90.99,216.74,147.29,355.58,147.29s264.5599-56.3,355.58-147.29c90.99-91.02,147.29-216.74,147.29-355.58s-56.3-264.56-147.29-355.55Z"/></clipPath><clipPath id="clippath-2"><path class="cls-1" d="M792.51,261.8464l-26.42-149.75c-17.46,3.52-34.53,8.08-51.14,13.66l57.49,157.95c4.59-8.48,11.68-15.87,20.07-21.86ZM817,105.0364c-10.09.77-20.07,1.9-29.96,3.37l19.16,108.68c.85-5.24,2.52-10.32,5.02-15.25-4.68-8.45-4.71-18.26-1.53-27.86-6.35-15.02-5.39-28.86,4.25-42.8.94-1.33.94-8.67.96-10.18.17-5.39.79-10.83,2.1-15.96h0ZM894.59,217.0865l19.16-108.68c-9.89-1.47-19.87-2.61-29.96-3.37,1.3,5.13,1.96,10.57,2.1,15.96.03,1.5.03,8.84.96,10.18,9.64,13.95,10.6,27.78,4.25,42.8,3.17,9.61,3.15,19.42-1.53,27.86,2.49,4.93,4.17,10.01,5.02,15.25h0ZM930.39,278.0864l55.45-152.33c-16.61-5.58-33.68-10.15-51.14-13.66l-25.91,146.83c8.53,4.93,16.02,11.37,21.6,19.16h0ZM930.44,369.0565l123.31-213.62c-15.42-8.42-31.44-15.9-47.93-22.39l-65.23,179.12c-.54,10.12-4.14,19.62-10.12,27.86l-.03.09v28.94ZM942.6,402.4965l172.89-206.02c-13.78-11-28.23-21.17-43.3101-30.42l-134.31,232.64c1.62,1.22,3.2,2.49,4.73,3.8h0ZM959.53,423.4764l209.65-175.92c-11.6801-13.24-24.1801-25.74-37.42-37.42l-175.04,208.63c.99,1.53,1.93,3.09,2.81,4.71h0ZM980.02,441.8165l233.23-134.65c-9.24-15.11-19.42-29.57-30.39-43.34l-208.15,174.64c1.79,1.11,3.54,2.21,5.3,3.34l.0101.01ZM1006.3,460.8665l240.0099-87.34c-6.49-16.53-14-32.54-22.42-47.96l-224.67,129.71c2.41,1.84,4.76,3.71,7.09,5.58l-.0099.01ZM1033.29,485.8964l233.9399-41.27c-3.49-17.43-8.08-34.53-13.66-51.14l-229.15,83.42c3.03,2.92,6.01,5.92,8.87,8.99h.0001ZM1059.05,518.2965h216.4299c-.45-17.86-1.98-35.46-4.5601-52.72l-221.64,39.09c3.4,4.42,6.66,8.99,9.78,13.63h-.0099ZM1080.77,558.7465l190.15,33.53c2.58-17.26,4.11-34.84,4.5601-52.72h-203.78c3.26,6.24,6.29,12.61,9.0699,19.19ZM1096.3,607.1365l157.27,57.23c5.58-16.61,10.1801-33.68,13.66-51.14l-178.04-31.41c2.49,8.02,4.65,16.27,6.4301,24.77.23.17.45.34.6801.54v.01ZM1126.4,676.0165l97.48,56.3c8.42-15.45,15.9301-31.46,22.42-47.96l-124.0699-45.16c4.8199,11.11,6.6,23.5,4.17,36.82h-.0001ZM1165.75,779.6765l17.12,14.34c10.97-13.78,21.15-28.23,30.39-43.31l-94.17-54.37c-1.3,2.49-2.75,4.96-4.25,7.29v12.73c3.9399,2.3,7.8199,4.71,11.62,7.26.6801.43,1.25.85,1.87,1.33,18.91,15,30.9301,32.51,37.42,54.7401v-.01ZM587,693.2764l-99.47,57.43c9.24,15.08,19.42,29.54,30.39,43.31l22.88-19.1899c5.78-21.77,19.45-40.39,38.58-54,.51-.34.94-.62,1.45-.96,3.15-1.96,6.38-3.86,9.67-5.7v-15.36c-1.3-1.87-2.44-3.6-3.49-5.53h-.01ZM585.5,636.6665l-131.02,47.68c6.49,16.5,14,32.51,22.42,47.96l103.58-59.81c-1.59-11-.37-22.14,3.8-32.97.4-.96.79-1.93,1.22-2.86h0ZM616.96,580.8865l-183.4,32.34c3.51,17.46,8.08,34.53,13.66,51.14l163.45-59.5c1.73-8.19,3.83-16.19,6.29-23.98h0ZM634.42,539.5565h-209.08c.43,17.89,1.96,35.46,4.54,52.72l195.73-34.5c2.72-6.24,5.64-12.3,8.82-18.23l-.01.01ZM656.53,505.5364l-226.66-39.97c-2.58,17.26-4.11,34.87-4.54,52.72h221.95c2.95-4.34,6.04-8.59,9.24-12.76l.01.01ZM680.71,478.4965l-233.49-85.01c-5.58,16.61-10.15,33.7-13.66,51.14l238.99,42.15c2.66-2.81,5.39-5.58,8.16-8.28ZM705.12,457.3265l-228.22-131.75c-8.42,15.42-15.93,31.44-22.42,47.96l244.23,88.89c2.1-1.73,4.25-3.43,6.41-5.1h0ZM728.82,440.7965l-210.9-176.97c-10.97,13.78-21.15,28.23-30.39,43.34l236.64,136.6c1.53-1.02,3.09-2.01,4.65-2.98v.0099ZM750.02,425.8565l-180.99-215.72c-13.24,11.68-25.74,24.18-37.42,37.42l216.34,181.53c.68-1.11,1.36-2.18,2.07-3.23h0ZM767.23,406.1265l-138.59-240.07c-15.11,9.24-29.57,19.42-43.34,30.42l178.53,212.74c1.11-1.05,2.24-2.07,3.4-3.09ZM777.29,359.1265l-82.29-226.09c-16.53,6.49-32.54,13.97-47.96,22.39l130.25,225.58v-21.88Z"/></clipPath></defs><path class="cls-11" d="M819.86,1134.4064v33.76h-45.81v139.12h-42.12v-139.12h-45.81v-33.76h133.74ZM0,1220.6065c0-17.0601,3.69-32.29,11.08-45.67,7.4-13.38,17.69-23.8101,30.9-31.29,13.24-7.46,28.2-11.2,44.96-11.2,20.52,0,38.1,5.41,52.7,16.24,14.63,10.86,24.38,25.63,29.31,44.33h-46.29c-3.46-7.23-8.33-12.73-14.66-16.5-6.32-3.77-13.52-5.67-21.54-5.67-12.98,0-23.5,4.54-31.52,13.55-8.05,9.04-12.08,21.09-12.08,36.2s4.03,27.1801,12.08,36.2c8.02,9.04,18.54,13.55,31.52,13.55,8.02,0,15.22-1.87,21.54-5.67,6.32-3.77,11.2-9.27,14.66-16.5h46.29c-4.93,18.74-14.68,33.45-29.31,44.22-14.6,10.74-32.17,16.13-52.7,16.13-16.75,0-31.72-3.74-44.96-11.2-13.21-7.48-23.5-17.86-30.9-31.15C3.68,1252.8564,0,1237.6863,0,1220.5964H0v.0101ZM216,1155.6065c-7.4,0-13.44-2.1801-18.11-6.55-4.68-4.34-7.03-9.72-7.03-16.13s2.35-12.02,7.03-16.36c4.68-4.37,10.71-6.55,18.11-6.55s13.15,2.1801,17.83,6.55c4.71,4.34,7.03,9.8101,7.03,16.36s-2.32,11.79-7.03,16.13c-4.68,4.37-10.63,6.55-17.83,6.55h0ZM236.92,1169.8664v137.42h-42.12v-137.42h42.12ZM329.27,1267.8864l29.79-98.02h44.84l-48.78,137.42h-51.96l-48.76-137.42h45.07l29.79,98.02h.01ZM442.8,1155.6065c-7.37,0-13.41-2.1801-18.09-6.55-4.68-4.34-7.03-9.72-7.03-16.13s2.35-12.02,7.03-16.36c4.68-4.37,10.71-6.55,18.09-6.55s13.18,2.1801,17.86,6.55c4.68,4.34,7.03,9.8101,7.03,16.36s-2.35,11.79-7.03,16.13c-4.68,4.37-10.63,6.55-17.86,6.55h0ZM463.75,1169.8664v137.42h-42.12v-137.42h42.12ZM485.91,1238.5765c0-14.26,2.89-26.76,8.73-37.42,5.84-10.6899,13.95-18.88,24.38-24.63s22.37-8.62,35.83-8.62c17.26,0,31.66,4.51,43.23,13.55,11.57,9.01,19.16,21.74,22.79,38.15h-44.82c-3.8-10.49-11.08-15.76-21.94-15.76-7.71,0-13.86,3-18.45,9.01-4.59,5.98-6.92,14.5699-6.92,25.71s2.32,19.76,6.92,25.74c4.59,6.01,10.74,8.99,18.45,8.99,10.86,0,18.14-5.24,21.94-15.76h44.82c-3.63,16.1-11.25,28.74-22.9,37.9301-11.65,9.21-26.02,13.8-43.11,13.8-13.46,0-25.4-2.86-35.83-8.62-10.43-5.75-18.54-13.95-24.38-24.63-5.84-10.66-8.73-23.16-8.73-37.45h0l-.0099.0099ZM970.58,1236.3664c0,3.9399-.26,8.05-.74,12.33h-95.33c.68,8.53,3.43,15.05,8.28,19.5601,4.82,4.54,10.77,6.77,17.83,6.77,10.52,0,17.83-4.42,21.94-13.29h44.82c-2.3,9.04-6.43,17.15-12.44,24.38-5.98,7.23-13.49,12.9-22.54,17.01-9.01,4.11-19.13,6.15-30.27,6.15-13.46,0-25.46-2.86-35.97-8.62-10.52-5.75-18.71-13.95-24.63-24.63-5.9-10.66-8.84-23.16-8.84-37.45s2.89-26.76,8.73-37.42c5.84-10.6899,14-18.88,24.49-24.63,10.52-5.75,22.59-8.62,36.23-8.62s25.11,2.78,35.46,8.36c10.35,5.58,18.43,13.55,24.24,23.9,5.84,10.35,8.76,22.42,8.76,36.2h-.02ZM927.47,1225.2864c0-7.23-2.44-12.95-7.37-17.23-4.93-4.25-11.08-6.41-18.48-6.41s-13.01,2.0699-17.86,6.15c-4.85,4.11-7.82,9.95-8.99,17.49h52.7,0ZM984.36,1238.5765c0-14.26,2.92-26.76,8.76-37.42,5.81-10.6899,13.95-18.88,24.38-24.63,10.4301-5.75,22.37-8.62,35.83-8.62,17.23,0,31.63,4.51,43.23,13.55,11.5699,9.01,19.16,21.74,22.76,38.15h-44.8199c-3.77-10.49-11.08-15.76-21.91-15.76-7.71,0-13.86,3-18.48,9.01-4.59,5.98-6.89,14.5699-6.89,25.71s2.3,19.76,6.89,25.74c4.62,6.01,10.77,8.99,18.48,8.99,10.83,0,18.14-5.24,21.91-15.76h44.8199c-3.6,16.1-11.23,28.74-22.9,37.9301-11.65,9.21-26.02,13.8-43.09,13.8-13.46,0-25.4-2.86-35.83-8.62-10.43-5.75-18.57-13.95-24.38-24.63-5.84-10.66-8.76-23.16-8.76-37.45h0v.0099ZM1226.21,1168.3964c15.76,0,28.4,5.22,37.9301,15.65,9.52,10.4301,14.29,24.75,14.29,42.97v80.28h-41.87v-74.61c0-9.1801-2.38-16.33-7.14-21.4301-4.76-5.0699-11.17-7.63-19.22-7.63s-14.4301,2.55-19.1899,7.63c-4.76,5.1-7.14,12.25-7.14,21.4301v74.61h-42.12v-182.24h42.12v63.3c4.25-6.0699,10.09-10.91,17.49-14.54,7.37-3.6,15.6801-5.41,24.86-5.41h0l-.0101-.01Z"/><g><path class="cls-11" d="M1424.72,1134.4064c18.23,0,34.13,3.63,47.76,10.86s24.1801,17.35,31.66,30.42c7.46,13.04,11.2,28.12,11.2,45.1801s-3.74,31.92-11.2,45.0699c-7.48,13.12-18.09,23.3-31.78,30.53-13.72,7.23-29.59,10.83-47.65,10.83h-64.77v-172.89h64.78ZM1422,1270.8664c15.9301,0,28.3199-4.37,37.1899-13.0699s13.29-21,13.29-36.9399-4.42-28.3199-13.29-37.1899-21.26-13.29-37.1899-13.29h-19.96v100.49h19.96ZM1531.84,1220.6065c0-17.0601,3.6899-32.29,11.08-45.67,7.4-13.38,17.6899-23.8101,30.9-31.29,13.24-7.46,28.2-11.2,44.96-11.2,20.52,0,38.1,5.41,52.7,16.24,14.63,10.86,24.38,25.63,29.3101,44.33h-46.29c-3.46-7.23-8.33-12.73-14.66-16.5-6.3199-3.77-13.52-5.67-21.5699-5.67-12.95,0-23.47,4.54-31.52,13.55-8.02,9.04-12.05,21.09-12.05,36.2s4.03,27.1801,12.05,36.2c8.05,9.04,18.5699,13.55,31.52,13.55,8.05,0,15.25-1.87,21.5699-5.67,6.3199-3.77,11.2-9.27,14.66-16.5h46.29c-4.9301,18.74-14.6801,33.45-29.3101,44.22-14.6,10.74-32.17,16.13-52.7,16.13-16.75,0-31.72-3.74-44.96-11.2-13.21-7.48-23.5-17.86-30.9-31.15-7.4-13.3199-11.08-28.49-11.08-45.58h0v.0101Z"/><g class="cls-161"><g><polyline class="cls-11" points="1399.83 1406.5064 1399.89 1406.6464 1735.09 1271.8565 1735.03 1271.7165"/><polyline class="cls-11" points="1400.14 1407.2664 1399.35 1405.3465 1734.58 1270.5865 1735.34 1272.5064"/><polyline class="cls-11" points="1399.63 1405.9964 1398.84 1404.0665 1734.04 1269.2764 1734.83 1271.2065"/><polyline class="cls-11" points="1399.1 1404.7165 1398.33 1402.7864 1733.53 1268.0064 1734.29 1269.9265"/><polyline class="cls-11" points="1398.59 1403.4165 1397.8199 1401.4865 1733.02 1266.6965 1733.78 1268.6564"/><polyline class="cls-11" points="1398.08 1402.1364 1397.3101 1400.2065 1732.51 1265.4265 1733.27 1267.3465"/><polyline class="cls-11" points="1397.5699 1400.8664 1396.77 1398.9365 1731.97 1264.1464 1732.76 1266.0765"/><polyline class="cls-11" points="1397.03 1399.5565 1396.26 1397.6364 1731.46 1262.8465 1732.25 1264.7764"/><polyline class="cls-11" points="1396.52 1398.2864 1395.75 1396.3565 1730.95 1261.5665 1731.71 1263.4964"/><polyline class="cls-11" points="1396.01 1397.0064 1395.24 1395.0765 1730.4399 1260.2965 1731.2 1262.2165"/><polyline class="cls-11" points="1395.5 1395.7065 1394.7 1393.7764 1729.9 1258.9865 1730.6899 1260.9165"/><polyline class="cls-11" points="1394.96 1394.4265 1394.1899 1392.4964 1729.39 1257.7165 1730.1801 1259.6364"/><polyline class="cls-11" points="1394.45 1393.1564 1393.6801 1391.2265 1728.88 1256.4365 1729.64 1258.3664"/><polyline class="cls-11" points="1393.9399 1391.8465 1393.17 1389.9165 1728.37 1255.1364 1729.13 1257.0665"/><polyline class="cls-11" points="1393.4301 1390.5765 1392.63 1388.6464 1727.86 1253.8565 1728.62 1255.7864"/><polyline class="cls-11" points="1392.92 1389.2664 1392.12 1387.3465 1727.3199 1252.5865 1728.11 1254.5064"/><polyline class="cls-11" points="1392.38 1387.9964 1391.61 1386.0665 1726.8101 1251.2764 1727.5699 1253.2065"/><polyline class="cls-11" points="1391.87 1386.7165 1391.1 1384.7864 1726.3 1250.0064 1727.0601 1251.9265"/><polyline class="cls-11" points="1391.36 1385.4165 1390.59 1383.4865 1725.79 1248.7265 1726.55 1250.6564"/><polyline class="cls-11" points="1390.85 1384.1364 1390.05 1382.2065 1725.25 1247.4265 1726.04 1249.3465"/><polyline class="cls-11" points="1390.3101 1382.8664 1389.54 1380.9365 1724.74 1246.1464 1725.53 1248.0765"/><polyline class="cls-11" points="1389.8 1381.5565 1389.03 1379.6364 1724.23 1244.8764 1725 1246.7965"/><polyline class="cls-11" points="1389.29 1380.2864 1388.52 1378.3565 1723.72 1243.5665 1724.49 1245.4964"/><polyline class="cls-11" points="1388.78 1379.0064 1387.98 1377.0765 1723.1801 1242.2965 1723.97 1244.2165"/><polyline class="cls-11" points="1388.24 1377.7065 1387.47 1375.7764 1722.67 1241.0164 1723.46 1242.9465"/><polyline class="cls-11" points="1387.73 1376.4265 1386.96 1374.4964 1722.16 1239.7165 1722.9301 1241.6364"/><polyline class="cls-11" points="1387.22 1375.1564 1386.45 1373.2265 1721.65 1238.4365 1722.42 1240.3664"/><polyline class="cls-11" points="1386.71 1373.8465 1385.91 1371.9165 1721.14 1237.1665 1721.91 1239.0865"/><polyline class="cls-11" points="1386.2 1372.5765 1385.4 1370.6464 1720.6 1235.8565 1721.4 1237.7864"/><polyline class="cls-11" points="1385.66 1371.2965 1384.89 1369.3664 1720.09 1234.5865 1720.86 1236.5064"/><polyline class="cls-11" points="1385.15 1369.9964 1384.38 1368.0665 1719.58 1233.2764 1720.35 1235.2365"/><polyline class="cls-11" points="1384.64 1368.7165 1383.85 1366.7864 1719.0699 1232.0064 1719.84 1233.9265"/><polyline class="cls-11" points="1384.13 1367.4465 1383.34 1365.5164 1718.53 1230.7265 1719.33 1232.6564"/><polyline class="cls-11" points="1383.59 1366.1364 1382.83 1364.2065 1718.02 1229.4265 1718.79 1231.3465"/><polyline class="cls-11" points="1383.08 1364.8664 1382.3101 1362.9365 1717.51 1228.1464 1718.28 1230.0765"/><polyline class="cls-11" points="1382.5699 1363.5865 1381.8 1361.6564 1717 1226.8764 1717.77 1228.7965"/><polyline class="cls-11" points="1382.0601 1362.2864 1381.27 1360.3565 1716.46 1225.5665 1717.26 1227.4964"/><polyline class="cls-11" points="1381.52 1361.0064 1380.76 1359.0765 1715.95 1224.2965 1716.75 1226.2165"/><polyline class="cls-11" points="1381.01 1359.7365 1380.25 1357.8065 1715.4399 1223.0164 1716.21 1224.9465"/><polyline class="cls-11" points="1380.5 1358.4265 1379.74 1356.4964 1714.9301 1221.7165 1715.7 1223.6364"/><polyline class="cls-11" points="1379.99 1357.1564 1379.2 1355.2265 1714.39 1220.4365 1715.1899 1222.3664"/><polyline class="cls-11" points="1379.45 1355.8465 1378.6899 1353.9165 1713.88 1219.1665 1714.6801 1221.0865"/><polyline class="cls-11" points="1378.9399 1354.5765 1378.1801 1352.6464 1713.37 1217.8565 1714.14 1219.7864"/><polyline class="cls-11" points="1378.4301 1353.2965 1377.67 1351.3664 1712.86 1216.5865 1713.63 1218.5064"/><polyline class="cls-11" points="1377.92 1351.9964 1377.13 1350.0665 1712.35 1215.3065 1713.12 1217.2365"/><polyline class="cls-11" points="1377.41 1350.7165 1376.62 1348.7864 1711.8101 1214.0064 1712.61 1215.9265"/><polyline class="cls-11" points="1376.87 1349.4465 1376.11 1347.5164 1711.3 1212.7265 1712.0699 1214.6564"/><polyline class="cls-11" points="1376.36 1348.1364 1375.6 1346.2065 1710.79 1211.4565 1711.5601 1213.3764"/><polyline class="cls-11" points="1375.85 1346.8664 1375.09 1344.9365 1710.28 1210.1464 1711.05 1212.0765"/><polyline class="cls-11" points="1375.34 1345.5865 1374.55 1343.6564 1709.74 1208.8764 1710.54 1210.7965"/><polyline class="cls-11" points="1374.8 1344.2864 1374.04 1342.3565 1709.23 1207.5965 1710.03 1209.5264"/><polyline class="cls-11" points="1374.29 1343.0064 1373.53 1341.0765 1708.72 1206.2965 1709.49 1208.2165"/><polyline class="cls-11" points="1373.78 1341.7365 1373.02 1339.8065 1708.21 1205.0164 1708.98 1206.9465"/><polyline class="cls-11" points="1373.27 1340.4265 1372.48 1338.4964 1707.6801 1203.7464 1708.47 1205.6665"/><polyline class="cls-11" points="1372.73 1339.1564 1371.97 1337.2265 1707.17 1202.4365 1707.96 1204.3664"/><polyline class="cls-11" points="1372.22 1337.8764 1371.46 1335.9465 1706.66 1201.1665 1707.42 1203.0865"/><polyline class="cls-11" points="1371.71 1336.5765 1370.95 1334.6464 1706.14 1199.8864 1706.91 1201.8165"/><polyline class="cls-11" points="1371.2 1335.2965 1370.41 1333.3664 1705.63 1198.5865 1706.4 1200.5064"/><polyline class="cls-11" points="1370.6899 1334.0264 1369.9 1332.0965 1705.1 1197.3065 1705.89 1199.2365"/><polyline class="cls-11" points="1370.15 1332.7165 1369.39 1330.7864 1704.59 1196.0064 1705.35 1197.9265"/><polyline class="cls-11" points="1369.64 1331.4465 1368.88 1329.5164 1704.08 1194.7265 1704.84 1196.6564"/><polyline class="cls-11" points="1369.13 1330.1665 1368.34 1328.2365 1703.5699 1193.4565 1704.33 1195.3764"/><polyline class="cls-11" points="1368.62 1328.8664 1367.83 1326.9365 1703.03 1192.1464 1703.8199 1194.0765"/><polyline class="cls-11" points="1368.09 1327.5865 1367.3199 1325.6564 1702.52 1190.8764 1703.28 1192.7965"/><polyline class="cls-11" points="1367.5699 1326.3165 1366.8101 1324.3864 1702.01 1189.5965 1702.77 1191.5264"/><polyline class="cls-11" points="1367.0601 1325.0064 1366.3 1323.0765 1701.5 1188.2965 1702.26 1190.2165"/><polyline class="cls-11" points="1366.55 1323.7365 1365.76 1321.8065 1700.96 1187.0164 1701.75 1188.9465"/><polyline class="cls-11" points="1366.02 1322.4565 1365.25 1320.4964 1700.45 1185.7464 1701.24 1187.6665"/><polyline class="cls-11" points="1365.51 1321.1564 1364.74 1319.2265 1699.9399 1184.4365 1700.7 1186.3664"/><polyline class="cls-11" points="1365 1319.8764 1364.23 1317.9465 1699.4301 1183.1665 1700.1899 1185.0865"/><polyline class="cls-11" points="1364.49 1318.5765 1363.6899 1316.6464 1698.92 1181.8864 1699.6801 1183.8165"/><polyline class="cls-11" points="1363.95 1317.2965 1363.1801 1315.3664 1698.38 1180.5865 1699.17 1182.5064"/><polyline class="cls-11" points="1363.4399 1316.0264 1362.67 1314.0965 1697.87 1179.3065 1698.63 1181.2365"/><polyline class="cls-11" points="1362.9301 1314.7165 1362.16 1312.7864 1697.36 1178.0364 1698.12 1179.9565"/><polyline class="cls-11" points="1362.42 1313.4465 1361.62 1311.5164 1696.85 1176.7265 1697.61 1178.6564"/><polyline class="cls-11" points="1361.91 1312.1665 1361.11 1310.2365 1696.3101 1175.4565 1697.1 1177.3764"/><polyline class="cls-11" points="1361.37 1310.8664 1360.6 1308.9365 1695.8 1174.1765 1696.5601 1176.1065"/><polyline class="cls-11" points="1360.86 1309.5865 1360.09 1307.6564 1695.29 1172.8764 1696.05 1174.7965"/><polyline class="cls-11" points="1360.35 1308.3165 1359.58 1306.3864 1694.78 1171.5965 1695.54 1173.5264"/><polyline class="cls-11" points="1359.84 1307.0064 1359.04 1305.0765 1694.24 1170.3165 1695.03 1172.2464"/><polyline class="cls-11" points="1359.3 1305.7365 1358.53 1303.8065 1693.73 1169.0164 1694.52 1170.9465"/><polyline class="cls-11" points="1358.79 1304.4565 1358.02 1302.5264 1693.22 1167.7464 1693.98 1169.6665"/><polyline class="cls-11" points="1358.28 1303.1564 1357.51 1301.2265 1692.71 1166.4665 1693.47 1168.3964"/><polyline class="cls-11" points="1357.77 1301.8764 1356.97 1299.9465 1692.17 1165.1665 1692.96 1167.0865"/><polyline class="cls-11" points="1357.23 1300.6065 1356.46 1298.6765 1691.66 1163.8864 1692.45 1165.8165"/><polyline class="cls-11" points="1356.72 1299.2965 1355.95 1297.3664 1691.15 1162.5865 1691.91 1164.5064"/><polyline class="cls-11" points="1356.21 1298.0264 1355.4399 1296.0965 1690.64 1161.3065 1691.4 1163.2365"/><polyline class="cls-11" points="1355.7 1296.7464 1354.9 1294.8165 1690.13 1160.0364 1690.89 1161.9565"/><polyline class="cls-11" points="1355.1899 1295.4465 1354.39 1293.5164 1689.59 1158.7265 1690.38 1160.6564"/><polyline class="cls-11" points="1354.65 1294.1665 1353.88 1292.2365 1689.08 1157.4565 1689.85 1159.3764"/><polyline class="cls-11" points="1354.14 1292.8864 1353.37 1290.9665 1688.5699 1156.1765 1689.34 1158.1065"/><polyline class="cls-11" points="1353.63 1291.5865 1352.83 1289.6564 1688.0601 1154.8764 1688.83 1156.7965"/><polyline class="cls-11" points="1353.12 1290.3165 1352.3199 1288.3864 1687.52 1153.5965 1688.3101 1155.5264"/><polyline class="cls-11" points="1352.58 1289.0364 1351.8101 1287.0765 1687.01 1152.3165 1687.78 1154.2464"/><polyline class="cls-11" points="1352.0699 1287.7365 1351.3 1285.8065 1686.5 1151.0164 1687.27 1152.9465"/><polyline class="cls-11" points="1351.5601 1286.4565 1350.79 1284.5264 1685.99 1149.7464 1686.76 1151.6665"/><polyline class="cls-11" points="1351.05 1285.1564 1350.26 1283.2265 1685.45 1148.4665 1686.25 1150.3964"/><polyline class="cls-11" points="1350.51 1283.8764 1349.74 1281.9465 1684.9399 1147.1665 1685.74 1149.0865"/><polyline class="cls-11" points="1350 1282.6065 1349.23 1280.6765 1684.4301 1145.8864 1685.2 1147.8165"/><polyline class="cls-11" points="1349.49 1281.2965 1348.72 1279.3664 1683.92 1144.6065 1684.6899 1146.5364"/><polyline class="cls-11" points="1348.98 1280.0264 1348.1899 1278.0965 1683.41 1143.3065 1684.1801 1145.2365"/><polyline class="cls-11" points="1348.4399 1278.7464 1347.6801 1276.8165 1682.87 1142.0364 1683.67 1143.9565"/><polyline class="cls-11" points="1347.9301 1277.4465 1347.17 1275.5164 1682.36 1140.7564 1683.13 1142.6865"/><polyline class="cls-11" points="1347.42 1276.1665 1346.66 1274.2365 1681.85 1139.4565 1682.62 1141.3764"/><polyline class="cls-11" points="1346.91 1274.8864 1346.12 1272.9665 1681.34 1138.1765 1682.11 1140.1065"/><polyline class="cls-11" points="1346.4 1273.5865 1345.61 1271.6564 1680.8 1136.8964 1681.6 1138.8265"/><polyline class="cls-11" points="1345.86 1272.3165 1345.1 1270.3864 1680.29 1135.5965 1681.0601 1137.5264"/><polyline class="cls-11" points="1345.35 1271.0364 1344.59 1269.1065 1679.78 1134.3165 1680.55 1136.2464"/><polyline class="cls-11" points="1344.84 1269.7365 1344.08 1267.8065 1679.27 1133.0465 1680.04 1134.9765"/><polyline class="cls-11" points="1344.33 1268.4565 1343.54 1266.5264 1678.73 1131.7464 1679.53 1133.6665"/><polyline class="cls-11" points="1343.79 1267.1765 1343.03 1265.2564 1678.22 1130.4665 1679.02 1132.3964"/><polyline class="cls-11" points="1343.28 1265.8764 1342.52 1263.9465 1677.71 1129.1665 1678.48 1131.1164"/><polyline class="cls-11" points="1342.77 1264.6065 1342.01 1262.6765 1677.2 1127.8864 1677.97 1129.8165"/><polyline class="cls-11" points="1342.26 1263.3265 1341.47 1261.3964 1676.66 1126.6065 1677.46 1128.5364"/><polyline class="cls-11" points="1341.72 1262.0264 1340.96 1260.0965 1676.15 1125.3065 1676.95 1127.2365"/><polyline class="cls-11" points="1341.21 1260.7464 1340.45 1258.8165 1675.64 1124.0364 1676.41 1125.9565"/><polyline class="cls-11" points="1340.7 1259.4665 1339.9399 1257.5465 1675.13 1122.7564 1675.9 1124.6865"/><polyline class="cls-11" points="1340.1899 1258.1665 1339.4 1256.2365 1674.62 1121.4565 1675.39 1123.3764"/><polyline class="cls-11" points="1339.6801 1256.8864 1338.89 1254.9665 1674.09 1120.1765 1674.88 1122.1065"/><polyline class="cls-11" points="1339.14 1255.6164 1338.38 1253.6865 1673.5699 1118.8964 1674.34 1120.8265"/><polyline class="cls-11" points="1338.63 1254.3165 1337.87 1252.3864 1673.0601 1117.5965 1673.83 1119.5264"/><polyline class="cls-11" points="1338.12 1253.0364 1337.33 1251.1065 1672.55 1116.3165 1673.3199 1118.2464"/><polyline class="cls-11" points="1337.61 1251.7365 1336.8199 1249.8065 1672.02 1115.0465 1672.8101 1116.9765"/><polyline class="cls-11" points="1337.0699 1250.4565 1336.3101 1248.5264 1671.51 1113.7464 1672.27 1115.6665"/><polyline class="cls-11" points="1336.5601 1249.1765 1335.8 1247.2564 1671 1112.4665 1671.76 1114.3964"/><polyline class="cls-11" points="1336.05 1247.8764 1335.29 1245.9465 1670.49 1111.1865 1671.25 1113.1164"/><polyline class="cls-11" points="1335.54 1246.6065 1334.75 1244.6765 1669.95 1109.8864 1670.74 1111.8165"/><polyline class="cls-11" points="1335 1245.3265 1334.24 1243.3964 1669.4399 1108.6065 1670.23 1110.5364"/><polyline class="cls-11" points="1334.49 1244.0264 1333.73 1242.0965 1668.9301 1107.3365 1669.6899 1109.2664"/><polyline class="cls-11" points="1333.98 1242.7464 1333.22 1240.8165 1668.42 1106.0364 1669.1801 1107.9565"/><polyline class="cls-11" points="1333.47 1241.4665 1332.6801 1239.5465 1667.91 1104.7564 1668.67 1106.6865"/><polyline class="cls-11" points="1332.96 1240.1665 1332.17 1238.2365 1667.37 1103.4765 1668.16 1105.4064"/><polyline class="cls-11" points="1332.4301 1238.8864 1331.66 1236.9665 1666.86 1102.1765 1667.62 1104.1065"/><polyline class="cls-11" points="1331.91 1237.6164 1331.15 1235.6865 1666.35 1100.8964 1667.11 1102.8265"/><polyline class="cls-11" points="1331.4 1236.3165 1330.61 1234.3864 1665.84 1099.6264 1666.6 1101.5565"/><polyline class="cls-11" points="1330.89 1235.0364 1330.1 1233.1065 1665.3 1098.3165 1666.09 1100.2464"/><polyline class="cls-11" points="1330.36 1233.7564 1329.59 1231.8365 1664.79 1097.0465 1665.55 1098.9765"/><polyline class="cls-11" points="1329.85 1232.4565 1329.08 1230.5264 1664.28 1095.7464 1665.04 1097.6965"/><polyline class="cls-11" points="1329.34 1231.1765 1328.5699 1229.2564 1663.77 1094.4665 1664.53 1096.3964"/><polyline class="cls-11" points="1328.83 1229.9064 1328.03 1227.9765 1663.23 1093.1865 1664.02 1095.1164"/><polyline class="cls-11" points="1328.29 1228.6065 1327.52 1226.6765 1662.72 1091.8864 1663.51 1093.8165"/><polyline class="cls-11" points="1327.78 1227.3265 1327.01 1225.3964 1662.21 1090.6065 1662.97 1092.5364"/><polyline class="cls-11" points="1327.27 1226.0465 1326.5 1224.1264 1661.7 1089.3365 1662.46 1091.2664"/><polyline class="cls-11" points="1326.76 1224.7464 1325.96 1222.8165 1661.16 1088.0364 1661.95 1089.9565"/><polyline class="cls-11" points="1326.22 1223.4665 1325.45 1221.5465 1660.65 1086.7564 1661.4399 1088.6865"/><polyline class="cls-11" points="1325.71 1222.1965 1324.9399 1220.2664 1660.14 1085.4765 1660.9 1087.4064"/><polyline class="cls-11" points="1325.2 1220.8864 1324.4301 1218.9665 1659.63 1084.1765 1660.39 1086.1065"/><polyline class="cls-11" points="1324.6899 1219.6164 1323.89 1217.6865 1659.12 1082.8964 1659.88 1084.8265"/><polyline class="cls-11" points="1324.1801 1218.3165 1323.38 1216.3864 1658.58 1081.6264 1659.37 1083.5565"/><polyline class="cls-11" points="1323.64 1217.0364 1322.87 1215.1065 1658.0699 1080.3165 1658.83 1082.2464"/><polyline class="cls-11" points="1323.13 1215.7564 1322.36 1213.8365 1657.5601 1079.0465 1658.3199 1080.9765"/><polyline class="cls-11" points="1322.62 1214.4565 1321.8199 1212.5264 1657.05 1077.7664 1657.8101 1079.6965"/><polyline class="cls-11" points="1322.11 1213.1765 1321.3101 1211.2564 1656.51 1076.4665 1657.3 1078.3964"/><polyline class="cls-11" points="1321.5699 1211.9064 1320.8 1209.9765 1656 1075.1865 1656.77 1077.1164"/><polyline class="cls-11" points="1321.0601 1210.6065 1320.29 1208.6765 1655.49 1073.9165 1656.26 1075.8465"/><polyline class="cls-11" points="1320.55 1209.3265 1319.78 1207.3964 1654.98 1072.6065 1655.74 1074.5364"/><polyline class="cls-11" points="1320.04 1208.0465 1319.24 1206.1264 1654.4399 1071.3365 1655.23 1073.2664"/><polyline class="cls-11" points="1319.5 1206.7464 1318.73 1204.8165 1653.9301 1070.0565 1654.72 1071.9865"/><polyline class="cls-11" points="1318.99 1205.4665 1318.22 1203.5465 1653.42 1068.7564 1654.1899 1070.6865"/><polyline class="cls-11" points="1318.48 1204.1965 1317.71 1202.2664 1652.91 1067.4765 1653.6801 1069.4064"/><polyline class="cls-11" points="1317.97 1202.8864 1317.17 1200.9665 1652.4 1066.2065 1653.17 1068.1364"/><polyline class="cls-11" points="1317.46 1201.6164 1316.66 1199.6865 1651.86 1064.8964 1652.66 1066.8265"/><polyline class="cls-11" points="1316.92 1200.3365 1316.15 1198.4165 1651.35 1063.6264 1652.12 1065.5565"/><polyline class="cls-11" points="1316.41 1199.0364 1315.64 1197.1065 1650.84 1062.3465 1651.61 1064.2764"/><polyline class="cls-11" points="1315.9 1197.7564 1315.11 1195.8365 1650.33 1061.0465 1651.1 1062.9765"/><polyline class="cls-11" points="1315.39 1196.4865 1314.6 1194.5565 1649.79 1059.7664 1650.59 1061.6965"/><polyline class="cls-11" points="1314.85 1195.1765 1314.09 1193.2564 1649.28 1058.4665 1650.05 1060.3964"/><polyline class="cls-11" points="1314.34 1193.9064 1313.5699 1191.9765 1648.77 1057.1865 1649.54 1059.1164"/><polyline class="cls-11" points="1313.83 1192.6264 1313.0601 1190.7065 1648.26 1055.9165 1649.03 1057.8465"/><polyline class="cls-11" points="1313.3199 1191.3265 1312.53 1189.3964 1647.72 1054.6065 1648.52 1056.5364"/><polyline class="cls-11" points="1312.78 1190.0465 1312.02 1188.1264 1647.21 1053.3365 1648.01 1055.2664"/><polyline class="cls-11" points="1312.27 1188.7764 1311.51 1186.8465 1646.7 1052.0565 1647.47 1053.9865"/><polyline class="cls-11" points="1311.76 1187.4665 1311 1185.5465 1646.1899 1050.7564 1646.96 1052.6865"/><polyline class="cls-11" points="1311.25 1186.1965 1310.46 1184.2664 1645.65 1049.4765 1646.45 1051.4064"/><polyline class="cls-11" points="1310.71 1184.9165 1309.95 1182.9665 1645.14 1048.2065 1645.9399 1050.1364"/><polyline class="cls-11" points="1310.2 1183.6164 1309.4399 1181.6865 1644.63 1046.8964 1645.4 1048.8265"/><polyline class="cls-11" points="1309.6899 1182.3365 1308.9301 1180.4165 1644.12 1045.6264 1644.89 1047.5565"/><polyline class="cls-11" points="1309.1801 1181.0364 1308.39 1179.1065 1643.61 1044.3465 1644.38 1046.2764"/><polyline class="cls-11" points="1308.67 1179.7564 1307.88 1177.8365 1643.0699 1043.0465 1643.87 1044.9765"/><polyline class="cls-11" points="1308.13 1178.4865 1307.37 1176.5565 1642.5601 1041.7664 1643.33 1043.6965"/><polyline class="cls-11" points="1307.62 1177.1765 1306.86 1175.2564 1642.05 1040.4964 1642.8199 1042.4265"/><polyline class="cls-11" points="1307.11 1175.9064 1306.3199 1173.9765 1641.54 1039.1865 1642.3101 1041.1164"/><polyline class="cls-11" points="1306.6 1174.6264 1305.8101 1172.7065 1641 1037.9165 1641.8 1039.8465"/><polyline class="cls-11" points="1306.0601 1173.3265 1305.3 1171.3964 1640.49 1036.6364 1641.29 1038.5665"/><polyline class="cls-11" points="1305.55 1172.0465 1304.79 1170.1264 1639.98 1035.3365 1640.75 1037.2664"/><polyline class="cls-11" points="1305.04 1170.7764 1304.28 1168.8465 1639.47 1034.0565 1640.24 1035.9865"/><polyline class="cls-11" points="1304.53 1169.4665 1303.74 1167.5465 1638.9399 1032.7864 1639.73 1034.7165"/><polyline class="cls-11" points="1303.99 1168.1965 1303.23 1166.2664 1638.4301 1031.4765 1639.22 1033.4064"/><polyline class="cls-11" points="1303.48 1166.9165 1302.72 1164.9964 1637.91 1030.2065 1638.6801 1032.1364"/><polyline class="cls-11" points="1302.97 1165.6164 1302.21 1163.6865 1637.4 1028.9265 1638.17 1030.8565"/><polyline class="cls-11" points="1302.46 1164.3365 1301.67 1162.4165 1636.89 1027.6264 1637.66 1029.5565"/><polyline class="cls-11" points="1301.95 1163.0665 1301.16 1161.1364 1636.36 1026.3465 1637.15 1028.2764"/><polyline class="cls-11" points="1301.41 1161.7564 1300.65 1159.8365 1635.85 1025.0465 1636.61 1026.9765"/><polyline class="cls-11" points="1300.9 1160.4865 1300.14 1158.5565 1635.34 1023.7664 1636.1 1025.6965"/><polyline class="cls-11" points="1300.39 1159.2065 1300.11 1158.4765 1635.3101 1023.6865 1635.59 1024.4265"/></g></g></g><g class="cls-159"><g><polyline class="cls-136" points="57.6 821.2664 58.71 818.8864 1143.84 1319.3365 1142.73 1321.7165"/><polyline class="cls-74" points="57.43 821.6564 61.26 813.3565 1146.39 1313.8065 1142.5601 1322.0865"/><polyline class="cls-113" points="59.98 816.1065 63.81 807.8265 1148.9399 1308.2564 1145.11 1316.5565"/><polyline class="cls-134" points="62.53 810.5765 66.36 802.2664 1151.49 1302.7265 1147.66 1311.0364"/><polyline class="cls-52" points="65.08 805.0465 68.91 796.7464 1154.04 1297.1965 1150.21 1305.5064"/><polyline class="cls-25" points="67.63 799.5164 71.46 791.2165 1156.59 1291.6765 1152.77 1299.9465"/><polyline class="cls-31" points="70.19 793.9665 74.01 785.6865 1159.14 1286.1164 1155.3199 1294.4265"/><polyline class="cls-20" points="72.74 788.4365 76.56 780.1364 1161.6899 1280.5865 1157.87 1288.8964"/><polyline class="cls-89" points="75.29 782.9064 79.11 774.6065 1164.25 1275.0665 1160.42 1283.3664"/><polyline class="cls-89" points="77.84 777.3864 81.67 769.0765 1166.8 1269.5364 1162.97 1277.8365"/><polyline class="cls-44" points="80.39 771.8565 84.22 763.5465 1169.35 1263.9765 1165.52 1272.2864"/><polyline class="cls-43" points="82.94 766.2965 86.77 757.9965 1171.9 1258.4465 1168.0699 1266.7564"/><polyline class="cls-86" points="85.49 760.7764 89.32 752.4664 1174.48 1252.9265 1170.62 1261.2265"/><polyline class="cls-111" points="88.04 755.2465 91.9 746.9365 1177.03 1247.3964 1173.2 1255.6965"/><polyline class="cls-32" points="90.6 749.7164 94.45 741.4064 1179.58 1241.8664 1175.75 1250.1464"/><polyline class="cls-59" points="93.17 744.1564 97 735.8865 1182.13 1236.3165 1178.3101 1244.6164"/><polyline class="cls-155" points="95.73 738.6365 99.55 730.3265 1184.6801 1230.7864 1180.86 1239.0865"/><polyline class="cls-101" points="98.28 733.1065 102.1 724.7965 1187.23 1225.2564 1183.41 1233.5665"/><polyline class="cls-50" points="100.83 727.5765 104.66 719.2764 1189.79 1219.7265 1185.96 1228.0064"/><polyline class="cls-50" points="103.38 722.0264 107.21 713.7465 1192.34 1214.1765 1188.51 1222.4765"/><polyline class="cls-47" points="105.93 716.4965 109.76 708.1865 1194.89 1208.6464 1191.0601 1216.9465"/><polyline class="cls-81" points="108.48 710.9664 112.31 702.6564 1197.4399 1203.1164 1193.61 1211.4265"/><polyline class="cls-80" points="111.03 705.4365 114.86 697.1365 1199.99 1197.5865 1196.16 1205.8964"/><polyline class="cls-146" points="113.58 699.8865 117.41 691.6065 1202.54 1192.0364 1198.71 1200.3365"/><polyline class="cls-98" points="116.14 694.3565 119.96 686.0465 1205.09 1186.5064 1201.27 1194.8165"/><polyline class="cls-8" points="118.69 688.8265 122.51 680.5264 1207.64 1180.9765 1203.8199 1189.2864"/><polyline class="cls-141" points="121.24 683.2965 125.06 674.9965 1210.2 1175.4565 1206.37 1183.7564"/><polyline class="cls-158" points="123.79 677.7764 127.62 669.4664 1212.75 1169.9265 1208.92 1178.2065"/><polyline class="cls-68" points="126.34 672.2164 130.17 663.9165 1215.3 1164.3664 1211.47 1172.6765"/><polyline class="cls-45" points="128.89 666.6865 132.72 658.3865 1217.85 1158.8365 1214.02 1167.1464"/><polyline class="cls-45" points="131.44 661.1665 135.27 652.8565 1220.4 1153.3165 1216.5699 1161.6164"/><polyline class="cls-42" points="133.99 655.6365 137.82 647.3265 1222.95 1147.7864 1219.12 1156.0665"/><polyline class="cls-91" points="136.54 650.0765 140.37 641.8065 1225.5 1142.2265 1221.6801 1150.5364"/><polyline class="cls-46" points="139.1 644.5465 142.92 636.2465 1228.05 1136.7065 1224.23 1145.0064"/><polyline class="cls-109" points="141.65 639.0264 145.47 630.7164 1230.6 1131.1765 1226.78 1139.4765"/><polyline class="cls-61" points="144.2 633.4965 148.03 625.1865 1233.16 1125.6464 1229.33 1133.9265"/><polyline class="cls-55" points="146.75 627.9365 150.58 619.6665 1235.71 1120.0865 1231.88 1128.3964"/><polyline class="cls-17" points="149.3 622.4165 153.13 614.1065 1238.29 1114.5665 1234.4301 1122.8664"/><polyline class="cls-99" points="151.85 616.8865 155.68 608.5765 1240.84 1109.0364 1237.01 1117.3465"/><polyline class="cls-99" points="154.4 611.3565 158.26 603.0565 1243.39 1103.5064 1239.5601 1111.8165"/><polyline class="cls-140" points="156.98 605.8265 160.81 597.5264 1245.9399 1097.9565 1242.11 1106.2564"/><polyline class="cls-140" points="159.53 600.2764 163.36 591.9664 1248.49 1092.4265 1244.66 1100.7265"/><polyline class="cls-104" points="162.09 594.7465 165.91 586.4365 1251.04 1086.8964 1247.22 1095.2065"/><polyline class="cls-104" points="164.64 589.2164 168.46 580.9165 1253.59 1081.3664 1249.77 1089.6765"/><polyline class="cls-105" points="167.19 583.6865 171.01 575.3865 1256.14 1075.8465 1252.3199 1084.1164"/><polyline class="cls-121" points="169.74 578.1365 173.57 569.8265 1258.7 1070.2864 1254.87 1078.5965"/><polyline class="cls-126" points="172.29 572.6065 176.12 564.3065 1261.25 1064.7564 1257.42 1073.0665"/><polyline class="cls-112" points="174.84 567.0765 178.67 558.7764 1263.8 1059.2365 1259.97 1067.5364"/><polyline class="cls-112" points="177.39 561.5565 181.22 553.2465 1266.35 1053.7065 1262.52 1061.9765"/><polyline class="cls-29" points="179.94 555.9965 183.77 547.7164 1268.9 1048.1464 1265.0699 1056.4565"/><polyline class="cls-29" points="182.49 550.4664 186.32 542.1665 1271.45 1042.6164 1267.63 1050.9265"/><polyline class="cls-49" points="185.05 544.9465 188.87 536.6365 1274 1037.0965 1270.1801 1045.3964"/><polyline class="cls-49" points="187.6 539.4165 191.42 531.1065 1276.55 1031.5665 1272.73 1039.8664"/><polyline class="cls-106" points="190.15 533.8565 193.97 525.5765 1279.11 1026.0064 1275.28 1034.3165"/><polyline class="cls-106" points="192.7 528.3265 196.53 520.0264 1281.66 1020.4865 1277.83 1028.7864"/><polyline class="cls-36" points="195.25 522.8065 199.08 514.4965 1284.21 1014.9565 1280.38 1023.2564"/><polyline class="cls-118" points="197.8 517.2764 201.63 508.9664 1286.76 1009.4265 1282.9301 1017.7365"/><polyline class="cls-118" points="200.35 511.7465 204.18 503.4465 1289.3101 1003.8664 1285.48 1012.1765"/><polyline class="cls-70" points="202.9 506.1965 206.73 497.8865 1291.86 998.3465 1288.03 1006.6464"/><polyline class="cls-70" points="205.46 500.6665 209.28 492.3565 1294.41 992.8165 1290.59 1001.1164"/><polyline class="cls-72" points="208.01 495.1365 211.83 486.8364 1296.96 987.2864 1293.14 995.5965"/><polyline class="cls-72" points="210.56 489.6065 214.38 481.3065 1299.51 981.7564 1295.6899 990.0364"/><polyline class="cls-87" points="213.11 484.0565 216.94 475.7764 1302.09 976.2065 1298.24 984.5064"/><polyline class="cls-87" points="215.66 478.5264 219.49 470.2164 1304.65 970.6765 1300.79 978.9865"/><polyline class="cls-65" points="218.21 472.9965 222.07 464.6965 1307.2 965.1464 1303.37 973.4565"/><polyline class="cls-124" points="220.79 467.4664 224.62 459.1665 1309.75 959.6264 1305.92 967.8964"/><polyline class="cls-148" points="223.34 461.9165 227.17 453.6365 1312.3 954.0665 1308.47 962.3764"/><polyline class="cls-148" points="225.89 456.3865 229.72 448.0864 1314.85 948.5364 1311.02 956.8465"/><polyline class="cls-130" points="228.44 450.8565 232.27 442.5565 1317.4 943.0064 1313.5699 951.3165"/><polyline class="cls-58" points="231 445.3364 234.82 437.0264 1319.95 937.4865 1316.13 945.7864"/><polyline class="cls-58" points="233.55 439.8065 237.37 431.4965 1322.5 931.9265 1318.6801 940.2365"/><polyline class="cls-138" points="236.1 434.2465 239.92 425.9465 1325.0601 926.3964 1321.23 934.7065"/><polyline class="cls-92" points="238.65 428.7164 242.48 420.4165 1327.61 920.8764 1323.78 929.1765"/><polyline class="cls-132" points="241.2 423.1965 245.03 414.8865 1330.16 915.3465 1326.33 923.6464"/><polyline class="cls-157" points="243.75 417.6665 247.58 409.3565 1332.71 909.8165 1328.88 918.0965"/><polyline class="cls-77" points="246.3 412.1065 250.13 403.8065 1335.26 904.2564 1331.4301 912.5665"/><polyline class="cls-142" points="248.85 406.5864 252.68 398.2764 1337.8101 898.7365 1333.98 907.0364"/><polyline class="cls-73" points="251.4 401.0565 255.23 392.7465 1340.36 893.2065 1336.54 901.5164"/><polyline class="cls-40" points="253.96 395.5264 257.78 387.2264 1342.91 887.6765 1339.09 895.9565"/><polyline class="cls-145" points="256.51 389.9764 260.33 381.6965 1345.46 882.1264 1341.64 890.4265"/><polyline class="cls-154" points="259.06 384.4465 262.89 376.1365 1348.02 876.5965 1344.1899 884.8964"/><polyline class="cls-60" points="261.61 378.9165 265.44 370.6065 1350.5699 871.0665 1346.74 879.3764"/><polyline class="cls-30" points="264.16 373.3865 267.99 365.0864 1353.12 865.5364 1349.29 873.8465"/><polyline class="cls-14" points="266.71 367.8364 270.54 359.5565 1355.67 859.9865 1351.84 868.2864"/><polyline class="cls-97" points="269.26 362.3065 273.09 353.9965 1358.22 854.4565 1354.39 862.7664"/><polyline class="cls-88" points="271.81 356.7764 275.64 348.4764 1360.77 848.9265 1356.9399 857.2365"/><polyline class="cls-51" points="274.37 351.2465 278.19 342.9465 1363.3199 843.4064 1359.5 851.7065"/><polyline class="cls-69" points="276.92 345.7264 280.74 337.4165 1365.9 837.8465 1362.05 846.1464"/><polyline class="cls-39" points="279.47 340.1665 283.29 331.8665 1368.45 832.3165 1364.6 840.6264"/><polyline class="cls-9" points="282.02 334.6365 285.87 326.3364 1371 826.7864 1367.1801 835.0965"/><polyline class="cls-33" points="284.57 329.1165 288.43 320.8065 1373.5601 821.2664 1369.73 829.5665"/><polyline class="cls-78" points="287.15 323.5864 290.98 315.2764 1376.11 815.7365 1372.28 824.0164"/><polyline class="cls-152" points="289.7 318.0264 293.53 309.7465 1378.66 810.1765 1374.83 818.4865"/><polyline class="cls-125" points="292.25 312.4965 296.08 304.1965 1381.21 804.6564 1377.38 812.9565"/><polyline class="cls-123" points="294.8 306.9764 298.63 298.6665 1383.76 799.1264 1379.9301 807.4265"/><polyline class="cls-56" points="297.35 301.4465 301.18 293.1365 1386.3101 793.5965 1382.49 801.8764"/><polyline class="cls-7" points="299.91 295.8865 303.73 287.6165 1388.86 788.0364 1385.04 796.3465"/><polyline class="cls-64" points="302.46 290.3665 306.28 282.0565 1391.41 782.5164 1387.59 790.8165"/><polyline class="cls-10" points="305.01 284.8364 308.83 276.5264 1393.97 776.9865 1390.14 785.2864"/><polyline class="cls-131" points="307.56 279.3065 311.39 271.0065 1396.52 771.4565 1392.6899 779.7664"/><polyline class="cls-12" points="310.11 273.7465 313.94 265.4764 1399.0699 765.9064 1395.24 774.2065"/><polyline class="cls-41" points="312.66 268.2264 316.49 259.9165 1401.62 760.3764 1397.79 768.6765"/><polyline class="cls-150" points="315.21 262.6965 319.04 254.3865 1404.17 754.8464 1400.34 763.1564"/><polyline class="cls-94" points="317.76 257.1665 321.59 248.8665 1406.72 749.3165 1402.89 757.6265"/><polyline class="cls-23" points="320.31 251.6365 324.14 243.3365 1409.27 743.7965 1405.45 752.0665"/><polyline class="cls-116" points="322.87 246.0865 326.69 237.7765 1411.8199 738.2365 1408 746.5465"/><polyline class="cls-129" points="325.42 240.5565 329.24 232.2564 1414.37 732.7065 1410.55 741.0165"/><polyline class="cls-100" points="327.97 235.0265 331.8 226.7264 1416.9301 727.1765 1413.1 735.4865"/><polyline class="cls-66" points="330.52 229.5064 334.35 221.1965 1419.48 721.6564 1415.65 729.9265"/><polyline class="cls-66" points="333.07 223.9465 336.9 215.6665 1422.03 716.0964 1418.2 724.4064"/><polyline class="cls-3" points="335.62 218.4165 339.45 210.1165 1424.58 710.5665 1420.75 718.8765"/><polyline class="cls-76" points="338.17 212.8865 342 204.5865 1427.13 705.0465 1423.3 713.3464"/><polyline class="cls-133" points="340.72 207.3665 344.55 199.0565 1429.6801 699.5165 1425.86 707.8165"/><polyline class="cls-26" points="343.28 201.8065 347.1 193.5265 1432.26 693.9565 1428.41 702.2665"/><polyline class="cls-63" points="345.83 196.2765 349.68 187.9764 1434.8101 688.4365 1430.99 696.7365"/><polyline class="cls-16" points="348.38 190.7564 352.23 182.4465 1437.36 682.9064 1433.54 691.2065"/><polyline class="cls-16" points="350.96 185.2264 354.78 176.9165 1439.91 677.3765 1436.09 685.6865"/><polyline class="cls-67" points="353.51 179.6965 357.34 171.3965 1442.47 671.8165 1438.64 680.1265"/><polyline class="cls-107" points="356.06 174.1465 359.89 165.8365 1445.02 666.2965 1441.1899 674.5964"/><polyline class="cls-107" points="358.61 168.6165 362.44 160.3065 1447.5699 660.7665 1443.74 669.0665"/><polyline class="cls-67" points="361.16 163.0865 364.99 154.7765 1450.12 655.2365 1446.29 663.5465"/><polyline class="cls-67" points="363.71 157.5565 367.54 149.2564 1452.67 649.7065 1448.84 657.9865"/><polyline class="cls-62" points="366.26 152.0064 370.09 143.7264 1455.22 644.1564 1451.4 652.4565"/><polyline class="cls-16" points="368.82 146.4764 372.64 138.1665 1457.77 638.6265 1453.95 646.9365"/><polyline class="cls-108" points="371.37 140.9465 375.19 132.6465 1460.3199 633.0964 1456.5 641.4064"/><polyline class="cls-63" points="373.92 135.4165 377.74 127.1165 1462.88 627.5765 1459.05 635.8464"/><polyline class="cls-63" points="376.47 129.8665 380.3 121.5865 1465.4301 622.0165 1461.6 630.3165"/><polyline class="cls-75" points="379.02 124.3365 382.85 116.0364 1467.98 616.4865 1464.15 624.7965"/><polyline class="cls-26" points="381.57 118.8065 385.4 110.5064 1470.53 610.9565 1466.7 619.2665"/><polyline class="cls-133" points="384.12 113.2864 387.95 104.9764 1473.08 605.4365 1469.25 613.7365"/><polyline class="cls-76" points="386.67 107.7264 390.5 99.4465 1475.63 599.8765 1471.8 608.1865"/><polyline class="cls-102" points="389.23 102.1965 393.05 93.8965 1478.1801 594.3464 1474.36 602.6564"/><polyline class="cls-18" points="391.78 96.6665 395.6 88.3665 1480.73 588.8265 1476.91 597.1265"/><polyline class="cls-79" points="394.33 91.1465 398.15 82.8365 1483.29 583.2965 1479.46 591.5964"/><polyline class="cls-79" points="396.88 85.6165 400.71 77.3065 1485.84 577.7665 1482.01 586.0465"/><polyline class="cls-66" points="399.43 80.0565 403.26 71.7564 1488.39 572.2065 1484.5601 580.5165"/><polyline class="cls-156" points="401.98 74.5364 405.81 66.2264 1490.9399 566.6865 1487.11 574.9865"/><polyline class="cls-143" points="404.53 69.0064 408.36 60.6965 1493.49 561.1564 1489.66 569.4565"/><polyline class="cls-54" points="407.08 63.4764 410.91 55.1765 1496.0699 555.6265 1492.21 563.9064"/><polyline class="cls-54" points="409.63 57.9165 413.46 49.6465 1498.62 550.0765 1494.79 558.3765"/><polyline class="cls-116" points="412.19 52.3965 416.04 44.0865 1501.17 544.5465 1497.34 552.8464"/><polyline class="cls-116" points="414.77 46.8665 418.59 38.5565 1503.72 539.0165 1499.9 547.3265"/><polyline class="cls-95" points="417.32 41.3365 421.14 33.0364 1506.27 533.4865 1502.45 541.7665"/><polyline class="cls-71" points="419.87 35.7864 423.69 27.5064 1508.83 527.9365 1505 536.2365"/><polyline class="cls-71" points="422.42 30.2564 426.25 21.9465 1511.38 522.4064 1507.55 530.7164"/><polyline class="cls-6" points="424.97 24.7264 428.8 16.4265 1513.9301 516.8765 1510.1 525.1865"/><polyline class="cls-150" points="427.52 19.1965 431.35 10.8965 1516.48 511.3464 1512.65 519.6564"/><polyline class="cls-2" points="430.07 13.6765 433.9 5.3665 1519.03 505.7965 1515.2 514.0964"/><polyline class="cls-117" points="432.62 8.1165 436.45 -.1935 1521.58 500.2665 1517.75 508.5765"/><polyline class="cls-120" points="435.17 2.5865 439 -5.7136 1524.13 494.7365 1520.3101 503.0465"/><polyline class="cls-90" points="437.73 -2.9335 441.55 -11.2435 1526.6801 489.2164 1522.86 497.5165"/><polyline class="cls-96" points="440.28 -8.4636 444.1 -16.7735 1529.23 483.6865 1525.41 491.9664"/><polyline class="cls-35" points="442.83 -14.0235 446.66 -22.3235 1531.79 478.1265 1527.96 486.4365"/><polyline class="cls-10" points="445.38 -19.5535 449.21 -27.8535 1534.34 472.6065 1530.51 480.9064"/><polyline class="cls-37" points="447.93 -25.0735 451.76 -33.3835 1536.89 467.0765 1533.0601 475.3765"/><polyline class="cls-15" points="450.48 -30.6035 454.31 -38.9135 1539.4399 461.5465 1535.61 469.8265"/><polyline class="cls-53" points="453.03 -36.1635 456.86 -44.4335 1541.99 455.9865 1538.16 464.2965"/><polyline class="cls-4" points="455.58 -41.6835 459.41 -49.9935 1544.54 450.4664 1540.71 458.7665"/><polyline class="cls-57" points="458.14 -47.2135 461.96 -55.5235 1547.09 444.9365 1543.27 453.2365"/><polyline class="cls-57" points="460.69 -52.7435 464.51 -61.0535 1549.64 439.4064 1545.8199 447.7164"/><polyline class="cls-135" points="463.24 -58.3035 467.06 -66.5735 1552.2 433.8565 1548.37 442.1564"/><polyline class="cls-151" points="465.79 -63.8235 469.62 -72.1335 1554.75 428.3265 1550.92 436.6265"/><polyline class="cls-139" points="468.34 -69.3535 472.17 -77.6635 1557.3 422.7965 1553.47 431.1065"/><polyline class="cls-93" points="470.89 -74.8835 474.72 -83.1835 1559.88 417.2665 1556.02 425.5765"/><polyline class="cls-93" points="473.44 -80.4135 477.27 -88.7135 1562.4301 411.7465 1558.5699 420.0165"/><polyline class="cls-19" points="475.99 -85.9635 479.85 -94.2735 1564.98 406.1865 1561.15 414.4865"/><polyline class="cls-22" points="478.57 -91.4935 482.4 -99.7935 1567.53 400.6564 1563.7 408.9664"/><polyline class="cls-5" points="481.12 -97.0235 484.95 -105.3235 1570.08 395.1265 1566.26 403.4365"/><polyline class="cls-5" points="483.68 -102.5435 487.5 -110.8535 1572.63 389.6065 1568.8101 397.8765"/><polyline class="cls-122" points="486.23 -108.1035 490.05 -116.3835 1575.1801 384.0465 1571.36 392.3565"/><polyline class="cls-85" points="488.78 -113.6335 492.6 -121.9335 1577.74 378.5165 1573.91 386.8265"/><polyline class="cls-85" points="491.33 -119.1635 495.16 -127.4635 1580.29 372.9965 1576.46 381.2965"/><polyline class="cls-28" points="493.88 -124.6835 497.71 -132.9935 1582.84 367.4664 1579.01 375.7465"/><polyline class="cls-149" points="496.43 -130.2435 500.26 -138.5235 1585.39 361.9064 1581.5601 370.2164"/><polyline class="cls-149" points="498.98 -135.7735 502.81 -144.0735 1587.9399 356.3765 1584.11 364.6865"/><polyline class="cls-24" points="501.53 -141.2935 505.36 -149.6035 1590.49 350.8565 1586.66 359.1564"/><polyline class="cls-119" points="504.09 -146.8235 507.91 -155.1335 1593.04 345.3265 1589.22 353.6365"/><polyline class="cls-34" points="506.64 -152.3835 510.46 -160.6535 1595.59 339.7665 1591.77 348.0765"/><polyline class="cls-84" points="509.19 -157.9135 513.01 -166.2135 1598.14 334.2465 1594.3199 342.5465"/><polyline class="cls-38" points="511.74 -163.4335 515.57 -171.7435 1600.7 328.7164 1596.87 337.0165"/><polyline class="cls-114" points="514.29 -168.9635 518.12 -177.2735 1603.25 323.1865 1599.42 331.4965"/><polyline class="cls-144" points="516.84 -174.4935 520.67 -182.7935 1605.8 317.6564 1601.97 325.9365"/><polyline class="cls-27" points="519.39 -180.0435 523.22 -188.3535 1608.35 312.1065 1604.52 320.4064"/><polyline class="cls-82" points="521.94 -185.5735 525.77 -193.8835 1610.9 306.5765 1607.0699 314.8865"/><polyline class="cls-147" points="524.49 -191.1035 528.32 -199.4035 1613.45 301.0465 1609.63 309.3565"/><polyline class="cls-103" points="527.05 -196.6335 530.87 -204.9335 1616 295.5165 1612.1801 303.7965"/><polyline class="cls-115" points="529.6 -202.1835 533.42 -210.4635 1618.55 289.9664 1614.73 298.2665"/><polyline class="cls-21" points="532.15 -207.7135 535.97 -216.0235 1621.11 284.4365 1617.28 292.7465"/><polyline class="cls-48" points="534.7 -213.2435 538.53 -221.5435 1623.6899 278.9064 1619.83 287.2164"/><polyline class="cls-127" points="537.25 -218.7635 541.08 -227.0735 1626.24 273.3865 1622.38 281.6865"/><polyline class="cls-13" points="539.8 -224.3235 543.66 -232.6035 1628.79 267.8265 1624.96 276.1365"/><polyline class="cls-153" points="542.35 -229.8535 546.21 -238.1535 1631.34 262.2965 1627.51 270.6065"/><polyline class="cls-110" points="544.93 -235.3835 548.76 -243.6835 1633.89 256.7764 1630.0601 265.0765"/><polyline class="cls-83" points="547.48 -240.9035 551.31 -249.2135 1636.4399 251.2465 1632.61 259.5465"/><polyline class="cls-83" points="550.03 -246.4335 553.86 -254.7435 1638.99 245.6865 1635.17 253.9965"/><polyline class="cls-137" points="552.59 -251.9935 556.41 -260.2935 1641.54 240.1565 1637.72 248.4664"/><polyline class="cls-128" points="555.14 -257.5135 558.96 -265.8235 1644.09 234.6365 1640.27 242.9365"/><polyline class="cls-128" points="557.69 -263.0435 558.06 -263.8635 1643.1899 236.5865 1642.8199 237.4065"/></g></g><path class="cls-11" d="M850.39,47.0364c266.12,0,481.89,215.77,481.89,481.89s-215.77,481.89-481.89,481.89-481.89-215.77-481.89-481.89S584.27,47.0364,850.39,47.0364h0ZM1171.11,208.2465c-82.09-82.09-195.48-132.86-320.71-132.86s-238.62,50.77-320.71,132.86c-82.06,82.06-132.83,195.45-132.83,320.68s50.77,238.62,132.83,320.71c82.09,82.0601,195.48,132.83,320.71,132.83s238.62-50.77,320.71-132.83c82.0599-82.09,132.83-195.48,132.83-320.71s-50.77-238.62-132.83-320.68h0Z"/><path class="cls-11" d="M885.15,615.0964c1.62-6.8,10.32-8.48,26.14-4.99v-5.07c-8.14-.85-16.41-1.56-24.8-2.1-1.79.96-3.26,2.35-4.39,4.17v74.61h3.06v-66.61l-.01-.01ZM1130.14,849.1264c-1.08.9399-2.13,1.84-3.2,2.75v-2.47c-.99.34-1.87,1.22-2.58,2.61v2.0699c-2.72,2.3-5.47,4.54-8.25,6.77v-36.6801c-.03-6.83,3.71-11.48,11.17-13.89-.88-1.16-1.84-2.3199-2.83-3.4301-28.4301-32.14-100.77-54.06-216.99-65.74,84.84,4.31,150.86,19.11,198.09,44.36-19.76-18.4-63.1-36.09-96.6-43.26-55.9-12.02-118.23-15.45-158.17-15.17-68.46-.48-202.56,9.95-257.53,55.64-8.76,7.29-14.06,15.45-15.93,24.52,15.02-26.36,77.3-51.99,149.81-60.41-98.16,19.59-148.11,44.84-149.84,75.77,1.11-5.27,3.77-9.04,7.97-11.3101,3.74-5.5601,8.08-9.86,13.07-12.87,5.19-3.12,9.95-1.02,9.86,5.47v74.52c-2.78-1.9301-5.53-3.91-8.28-5.9v-62.8199c-4.03-.26-7.51,1.67-10.4,5.84v49.12c-.79-.62-1.59-1.22-2.38-1.84v-40.59c-3.86.28-6.66,3.09-8.42,8.39v25.37c-.65-.54-1.33-1.11-1.98-1.67v-23.16c-1.9-2.4399-2.81-5.87-2.69-10.26-6.69-7.46-8.76-14.83-7.94-21.77-.2-24.55,12.78-43.14,29.74-55.19,53.49-33.31,147.68-55.39,254.95-55.39,69.22,0,133,9.18,183.91,24.69v-72.23l-5.47-7.14c7.37,3.12,14.34,6.46,20.86,9.95-.54,2.83-1.84,7.09-2.47,8.62-1.02-1.42-2.47-2.47-4.39-3.15v13.72h-3.0601v51.93c6.4301,2.04,12.64,4.2,18.62,6.43v-66.73c-1.22-2.01-2.98-3.43-5.27-4.28v-4.68c4.39,2.44,8.59,4.99,12.5601,7.6-5.27-9.07-17.52-19.5-33.7-27.78-46.43-21.63-110.64-35.04-181.59-35.04-92.18,0-173,22.62-218.18,56.52-11.28,9.69-15.96,21.52-13.44,33.25,5.33-14.97,20.47-29.62,40.11-40.42,11.59-5.67,24.38-10.83,38.18-15.39,2.18.77,3.34,2.38,3.49,4.85-12.13,1.33-17.66,6.04-17.94,14.12v61.74l-3.66.88v-67.46c-9.16,3.66-21.03,5.84-22.82,17.29v56.72l-2.07.62v-61.94c-10.89,2.95-23.5,13.46-23.5,25.51v44.53l-2.07.94v-45.41c-4.45,1.67-6.49,5.98-6.12,12.9l-.85,35.15-3.06,1.76v-32.34c-1.53-9.81-5.22-9.81-7.8-16.36-3.74-9.61-3.86-18.99-.31-28.15,4.25-11,14.83-21,25.6-27.84,12.44-77.7,61.82-135.24,131.75-170.87,6.26-11.99,13.75-22.93,29.96-31.89v-14.37c1.33-4.48,3.88-8.16,7.6-11.03v-64.74c-3.4-2.52-5.16-6.49-5.36-11.93-19.22-22.25,21.46-44.11,43.11-43.88-22.88,5.27-38.83,18.88-43,30.95,13.04-15.25,29.71-23.39,50-24.41,21.43-.09,41.1,5.02,54.14,20.3-7.48-13.04-21.29-21.12-41.47-24.26,33.65-1.87,62.65,26.82,42.77,49.72-3.34,3.83-3.88,6.41-3.74,11.68v58.99c6.77,6.41,9.92,12.9,9.41,19.5,15.34,7.57,24.77,19.39,28.32,35.46,74.18,39.03,117.55,96.49,130.14,172.32l.9399.57c21.86,13.41,31.58,30.42,27.16,49.07-1.53,6.43-7.09,16.33-11.5699,21.06v39.15c8.87,4.37,16.98,9.01,24.24,13.86,19.11,15.17,26.16,31.27,29.65,47.76,1.73,8.05-.79,15.99-5.8101,22.34-2.89,3.63-4.34,7.91-4.42,12.7v19.16l-.0303.0305ZM1105.6801,868.9964c-2.78,2.0699-5.58,4.14-8.42,6.15v-67.72c-.48-12.33,11.59-8.67,17.1801-2.72-8.11,1.8101-8.76,27.1801-8.76,36.26v28.03h0ZM1086.52,882.5765c-3.3199,2.21-6.6899,4.39-10.09,6.52v-29.99c-.6-1.22-1.96-2.13-4.03-2.6899v35.21c-.88.54-1.79,1.11-2.6899,1.64v-100.9399c.4301-3.66,3.17-6.24,8.28-7.74,5.7,2.15,11.17,4.37,16.41,6.6899-4.85,3.0601-7.88,7.91-7.88,14.09v77.22-.01ZM1051.34,903.7265c-6.12,3.29-12.39,6.46-18.71,9.47v-130.5601c.45-4.54,3.12-7.91,7.99-10.15,7.71,2.15,15.1899,4.39,22.34,6.77-4.11,2.3199-5.24,5.73-5.24,11.23v49.66c-2.89,2.01-4.99,5.53-6.38,10.49v53.09h0ZM1019.96,918.9465c-2.78,1.22-5.58,2.38-8.39,3.54v-120.16c-4.45,1.59-7.94,5.05-10.43,10.4301v113.84c-4.11,1.5601-8.22,3.0601-12.39,4.48v-159.36c1.11-4.88,3.51-8.05,7.23-9.55,9.58,1.8101,18.85,3.83,27.84,5.98-2.81,1.84-3.86,4.88-3.86,9.27v141.53ZM976.03,935.2764c-1.19.34-2.38.6801-3.54,1.05v-142.8099c-10.77-8.8199-18.74,6.29-18.74,17.83v130.11c-4.9,1.22-9.84,2.35-14.8,3.4v-177.11c-.09-5.3,2.07-9.72,6.49-13.27,9.92,1.16,19.64,2.47,29.11,3.97,1.56,3.5699,1.47,6.92,1.47,11.25v165.5701l.01.0099ZM908.19,950.2065c-7.23.99-14.51,1.79-21.86,2.38v-181.16c.34-8.79,2.21-15.9,5.58-21.29,10.97.54,21.74,1.25,32.34,2.18,2.1,3.46,3.2,7.3101,3.32,11.51v21.77c-4.82-6.09-18.51-7.17-26.45-.3101,4.54,3.8,6.89,8.28,7.06,13.4399v151.48h.0099ZM863.26,953.9265c-4.28.11-8.56.2-12.87.2-6.04,0-12.08-.14-18.06-.4v-192.7c.43-5.07,2.07-8.99,5.02-11.76,4.45-.06,8.9-.11,13.41-.11,6.15,0,12.27.09,18.34.2,3.17,2.95,4.65,6.6,4.65,11.5099v17.74c-2.55,1.22-4.56,3.26-6.07,6.0699-5.13-2.21-10.77-3.0601-16.92-2.55,6.83,4.37,11.03,9.1801,12.5,14.51v157.29h0ZM817.11,952.8465c-6.97-.54-13.92-1.25-20.78-2.13v-153.4399c0-14.74,20.78-14.34,20.78,0v155.5701h0ZM790.27,949.8664c-3.91-.54-7.8-1.16-11.68-1.8101v-185.02c-.23-4,.51-7.68,2.18-11,10.66-.91,21.54-1.59,32.57-2.07,3.43,2.72,5.41,6.41,6.01,11.06v23.47c-14.6-8.53-29.08,2.04-29.08,19.39v145.98h0ZM767.03,945.9265c-4.28-.85-8.53-1.73-12.76-2.72v-148.6799c3.12-3.15,7.37-4.3101,12.76-3.49v154.89h0ZM747.24,941.5064c-1.02-.26-2.01-.48-3.03-.74v-154.4c-2.95.77-4.45,4.11-4.45,10.03v143.15c-3.57-.96-7.14-1.96-10.69-3v-163.96c.14-5.67-.79-10.35-2.86-14.03,10.49-1.64,21.26-3.12,32.26-4.34,4.39,2.95,7.23,6.43,8.56,10.4901v21.46c-7.99-.26-14.6,1.22-19.79,4.39v150.95ZM717.22,932.8365c-2.01-.6801-4-1.33-5.98-2.01v-124.53c1.13-3.97,3.15-6.35,5.98-7.14v133.6799h0ZM706.82,929.2664c-.85-.3101-1.7-.6-2.55-.91v-136.03c-6.24,1.3-7.46,8.65-7.46,13.97v119.23c-4.34-1.7-8.67-3.4301-12.93-5.24v-135.98c-.31-6.4301-2.55-11.76-6.77-16.02,10.4-2.49,21.2-4.79,32.37-6.86,4.05,3.17,6.6,6.97,7.74,11.37v21.74c-5.1.11-8.56,1.1899-10.4,3.23v131.5h0ZM672.8,915.3465c-.34-.14-.65-.3101-.96-.45l-1.5-111.86c-3,.65-5.56,2.49-7.63,5.47v102.02c-2.52-1.25-5.05-2.49-7.54-3.8v-78.4301c-1.25-5.64-3.49-10.35-6.77-14.09v-18.4301c-.11-7.46-2.78-13.1801-7.99-17.12,8.11-2.66,16.61-5.16,25.4-7.51,4.76,3.0601,7,8.14,7,14.2v130h-.01ZM635.75,896.0364c-1.56-.9399-3.15-1.84-4.71-2.8101v-51.79c-1.84-5.7-4.51-9.52-8.02-11.48v25.9399h-1.62v31.35c-.88-.54-1.73-1.13-2.61-1.7v-75.9399c-.06-10.2-6.35-15.5601-13.46-17.5699,7.34-3.26,15.17-6.41,23.41-9.38,4.68,3.17,7,7.5699,7,14.2v99.1801h.0101ZM1004.12,628.1665v69.36c1.87,4.2,5.78,6.49,11.65,6.86v-53.89c.43-5.73-2.3-8.02-8.14-6.86v-6.75c1.05-2.58,2.66-4.45,4.82-5.7,4.39,1.67,8.19,3.97,11.37,6.86v-6.43c-8.82-3.54-18.17-6.83-28.01-9.81l8.31,6.35v.0101ZM967.18,618.8665v67.69c1.33,5.61,6.35,8.19,15.08,7.74v-56.32c-.2-6.35-9.75-7.91-12.53,0-.4-16.33,6.6-20.41,20.95-12.25v-5.41c-9.95-2.89-20.38-5.47-31.21-7.74l7.71,6.29ZM946.4,631.7965c-1.67-8.31-13.83-8.45-15.76,0v54.43l15.76,1.96v-56.39ZM888.41,625.8165v56.24l16.36,1.28v-57.52c-2.18-6.58-14.12-6.58-16.36,0h0ZM819.75,272.5065c4.76-10.26,10.91-14.94,15.59-22.96,3.03-5.16,1.84-9.69.06-15.34-3.03-9.61-1.56-17.09,4.73-25.31,7.14-9.33,6.49-12.73-2.35-19.08-3.77-2.69-1.5-6.89.37-10.54,2.83-5.58.77-9.55-1.81-15.17-3.06-6.6-3.43-10.52.94-16.78,5.56-8.08,5.7-15.85,5.98-25.54.31-10.94,2.69-16.95,7.14-18.06,4.45,1.11,6.83,7.11,7.14,18.06.28,9.69.43,17.46,5.98,25.54,4.37,6.26,4,10.18.94,16.78-2.58,5.61-4.65,9.58-1.81,15.17,1.87,3.66,4.14,7.85.37,10.54-8.84,6.35-9.5,9.75-2.35,19.08,6.29,8.22,7.77,15.7,4.73,25.31-1.79,5.64-2.98,10.18.06,15.34,4.68,8.02,10.83,12.7,15.59,22.96-22.65-8.53-38.64-8.53-61.29,0h-.0101ZM647.97,714.8464v-49.44c-3.66-.03-5.36,3.34-5.07,10.2,1.33-.68,2.35-.68,3.12,0v40.11l1.96-.88-.01.01ZM661.07,661.6464c1.76.26,3.03,1.53,3.83,3.86v44.65l6.24-1.96v-53.21c-.06-4.65-9.38-2.21-10.06,6.66h-.01ZM687.49,650.3865c1.67-2.83,4.37-2.49,4.51,0v52.16l8.53-2.64v-53.15c-.06-7.77-13.01-5.07-13.04,3.63h0ZM713.11,619.6665c-2.83,2.81-2.47,11.34-2.47,15.02v63.1l4.31-1.16v-61.8c0-15.02,10.29-16.3,23.41-15.31-.17-3.57-1.84-5.24-5.05-5.02-6.92,1.59-13.66,3.29-20.21,5.16h0l.01.01ZM735.93,637.0665c-.28-7.91-15.56-5.81-15.28,3.63l2.78,1.5v51.79l12.5-2.15v-54.77h0ZM775.47,632.1965c-.06-9.21-15.31-9.64-16.67,1.39v53.69l16.67-1.19v-53.89ZM753.7,610.3065c-3.32,1.3-4.03,5.27-4.03,8.45v70.02h2.98v-61.14c0-15.34,15.48-17.01,27.61-14.94-.6-3.09-2.52-4.99-5.73-5.7-7.06.96-14.03,2.07-20.83,3.32h0v-.01ZM803.14,609.1464c4.9-.45,10.46-1.02,14.48-.85,2.75.11,5.5,1.16,8.31,3.09-.54-4.45-2.52-7.37-5.98-8.73-8.02.43-15.93,1.02-23.73,1.79-2.92,1.05-4.45,3.4-4.54,7.06v74.15h2.72v-68.2c.82-6.49,3.23-7.77,8.73-8.31h.01ZM799.37,627.7164v56.32l19.59-1.19v-55.13c-.99-8.76-17.12-9.95-19.59,0h0ZM850.76,619.5765c-5.02,0-9.1,4.11-9.1,9.13v52.89h18.2v-52.89c0-5.02-4.08-9.13-9.1-9.13h0ZM841.55,601.9165c-3.49,1.87-5.27,5.44-5.39,10.71v69.25h2.78v-64.71c.23-5.1,1.64-10.46,7.6-10.46h15.14c3.83,0,5.84,1.33,7.88,4.73.45-3.23-.37-6.35-2.55-9.38-5.36-.14-10.8-.23-16.24-.23-3.09,0-6.15.03-9.21.09h-.01ZM808.1,424.6065c23.1-14.91,84.42-15.51,112.31,16.95-10.23-2.41-21.51-2.41-33.87,0,10.06,2.3,19.67,4.99,28.89,8.08,25.51,21.52,39.03,67.89,40.62,139.1l-.82-.17c-10.8-1.79-21.94-3.32-33.36-4.54-3.63-79.51-13.21-125.29-28.77-137.34,13.86,17.55,21.77,63.16,23.73,136.83-12.08-1.22-24.46-2.1-37.11-2.64-.31-61.63-3.57-108.17-9.78-137.54l5.84,137.4c-8.25-.31-16.58-.45-25-.45-4.03,0-8.02.03-11.99.11l1.9-104.06c.28-15.22.17-27.67,6.52-42.01-9.27,9.16-11.62,27.58-11.93,40.11l-2.44,106.07c-11.74.31-23.24.91-34.55,1.79.82-35.01,2.98-64.18,6.43-87.51,2.95-19.87,6.49-47.08,26.33-57.17-23.67.37-30.56,50.46-33.48,70.36-2.69,18.6-4.9,43.57-6.6,74.95-6.72.6-13.32,1.3-19.84,2.07-3.83.68-7.6,1.39-11.28,2.1,2.95-83.45,20.72-132.15,53.29-146.1-50.51,10.52-55.67,102.93-59.7,147.34-9.18,1.84-17.94,3.8-26.25,5.84,4-67.46,15.79-109.7,35.35-126.65-22.37,14.43-35.83,57.06-40.39,127.93-9.24,2.35-17.91,4.88-25.99,7.48,4.25-47.51,14.51-84.08,30.76-109.67-20.75,28.43-32.88,65.62-36.34,111.54-5.02,1.73-9.81,3.51-14.37,5.33,2.35-30.73,8.48-58.48,18.4-83.23-10.43,15.14-18.4,43.65-23.92,85.55-4.28,1.84-8.33,3.71-12.13,5.67,1.62-18.08,5.47-45.44,11.76-66.7-7.11,16.87-13.35,40.22-16.61,69.25-19.42,10.63-32.34,22.73-38.75,36.31,1.16-10.77,9.44-21.51,24.83-32.29,14.85-79.8,58.9-136.54,132.09-170.19,3.8-11.59,16.07-25.71,29.31-32.43v-4.59c10.74-13.83,27.16-21.6,49.24-23.24,26.19-.14,44.5,8.59,54.99,26.22-30.02-16.61-69.7-16.7-97.29,4.14h-.03ZM896.26,401.3065c-13.07-7.71-28.35-11.42-45.86-11.17-18.99.6-34.89,6.83-47.71,18.65,6.07-10.66,20.15-17.92,42.24-21.71-14.23-.4-25.82,2.86-36.06,9.81v-62.33c.54-3.66,2.66-7,6.41-10.03v63.3c1.08-.62,2.41-1.33,4-2.13v-67.86c2.78-1.05,5.27-1.05,7.48,0v65.93c1.36-1.05,3.29-1.9,5.78-2.58v-44.36c-.2-5.92,1.81-10.01,6.01-12.25v-13.83c2.92-.31,5.44.65,7.57,2.92v66.08c2.86-.6,6.35-.6,10.49,0v-53.94c-.09-10.09,3.12-14.88,10.57-15.36v71.15c4.14.37,7.97.94,11.48,1.67v-71.29c4.62.88,7.68,4.31,9.13,10.35v63.67c1.3.23,2.69.54,4.14.96v-47.03c.43-3.49,1.7-6.01,3.83-7.57h3.86v64.4c-9.16-6.18-20.95-9.21-35.35-9.04,13.07,1.22,23.73,5.75,32,13.61h0l-.01-.02ZM807.31,323.9565c-1.7-2.04-2.47-4.85-2.35-8.42,6.69-12.67,24.24-22.62,45.44-22.79,21.2.17,36.37,6.29,45.44,22.79-18.37-22.37-74.66-21.2-88.53,8.42h0ZM850.76,695.9764c90.11,0,223.5701,21.09,269.52,70.04-41.16-26.79-99.98-43.06-176.54-48.78,91.59,12.56,152.6201,32.12,183.1201,58.73-55.36-35.43-158.29-59.22-276.09-59.22-103.24,0-195.05,18.28-253.45,46.63,27.07-16.95,64.29-30.44,111.6-40.48-49.95,7.11-92.98,22.54-129.03,46.26,8.67-9.38,18.68-18,30.08-25.82,55.05-28.77,142.44-47.37,240.8-47.37h0l-.0101.01ZM933.56,456.4764c69.99,29.25,112.8799,84.05,134.59,165.97-1.9-1.05-3.91-2.1-6.04-3.09-2.24-9.18-4.9301-18.94-8.11-29.34,1.25,10.15,2.27,19.16,3.03,27.04-1.76-.77-3.54-1.53-5.36-2.24-6.0699-36.51-15.99-64.09-29.76-82.74,10.8,25.99,18.34,52.64,22.59,79.94-3.5699-1.33-7-2.58-10.12-3.66,29.71,10.86,49.01,26.79,57.91,47.71-9.35-16.53-28.91-31.1-58.65-43.68-6.72-61.34-24.75-103.41-54.09-126.23,24.63,27.89,38.58,68.34,41.81,121.35-3.88-1.45-7.91-2.86-12.08-4.28-5.24-69.59-24.75-115.29-58.51-137.14,23.9,27.86,37.02,71.63,39.4,131.27-4.34-1.22-8.79-2.44-13.41-3.63.65-64.63-13.78-110.38-43.23-137.25h.03ZM1063.28,678.8765c2.4399-8.93,6.12-16.19,11.0601-21.83v70.61c-3.5699-1.56-7.26-3.06-11.0601-4.56v-44.22h0ZM916.36,605.6365l8.9,5.56v74.78h2.55v-66.13c3.54-7.14,11.91-8.45,25.06-3.91v-4.65c-11.74-2.3-23.95-4.17-36.51-5.64h0v-.01Z"/><g class="cls-160"><g><polyline class="cls-46" points="756.94 1113.5164 757.39 1114.1364 1438.24 603.3964 1437.79 602.7965"/><polyline class="cls-109" points="759.06 1116.3465 754.04 1109.6865 1434.9 598.9465 1439.91 605.6365"/><polyline class="cls-61" points="755.72 1111.8964 750.73 1105.2365 1431.58 594.5165 1436.5699 601.1765"/><polyline class="cls-55" points="752.4 1107.4765 747.38 1100.7864 1428.24 590.0665 1433.25 596.7264"/><polyline class="cls-17" points="749.06 1103.0264 744.04 1096.3365 1424.89 585.6165 1429.91 592.2764"/><polyline class="cls-99" points="745.71 1098.5765 740.72 1091.9165 1421.5699 581.1665 1426.5601 587.8265"/><polyline class="cls-99" points="742.39 1094.1264 737.38 1087.4665 1418.23 576.7164 1423.25 583.3765"/><polyline class="cls-140" points="739.05 1089.6765 734.03 1083.0164 1414.88 572.2665 1419.9 578.9565"/><polyline class="cls-140" points="735.7 1085.2265 730.71 1078.5665 1411.5699 567.8165 1416.5601 574.5065"/><polyline class="cls-104" points="732.39 1080.7764 727.37 1074.1164 1408.22 563.3964 1413.24 570.0565"/><polyline class="cls-104" points="729.04 1076.3565 724.03 1069.6665 1404.88 558.9465 1409.9 565.6065"/><polyline class="cls-105" points="725.7 1071.9064 720.71 1065.2165 1401.5601 554.4965 1406.55 561.1564"/><polyline class="cls-121" points="722.38 1067.4565 717.36 1060.7864 1398.22 550.0465 1403.23 556.7065"/><polyline class="cls-126" points="719.04 1063.0064 714.02 1056.3365 1394.87 545.5964 1399.89 552.2565"/><polyline class="cls-112" points="715.69 1058.5465 710.7 1051.8864 1391.5601 541.1464 1396.54 547.8364"/><polyline class="cls-112" points="712.37 1054.0965 707.36 1047.4365 1388.21 536.7164 1393.23 543.3865"/><polyline class="cls-29" points="709.03 1049.6464 704.01 1042.9865 1384.87 532.2665 1389.88 538.9365"/><polyline class="cls-29" points="705.69 1045.2265 700.7 1038.5364 1381.55 527.8165 1386.54 534.4865"/><polyline class="cls-49" points="702.37 1040.7764 697.35 1034.0865 1378.2 523.3665 1383.22 530.0264"/><polyline class="cls-49" points="699.02 1036.3265 694.01 1029.6665 1374.86 518.9165 1379.88 525.5765"/><polyline class="cls-106" points="695.68 1031.8764 690.69 1025.2165 1371.54 514.4664 1376.53 521.1564"/><polyline class="cls-106" points="692.36 1027.4265 687.34 1020.7664 1368.2 510.0165 1373.22 516.7065"/><polyline class="cls-36" points="689.02 1022.9765 684.03 1016.3165 1364.85 505.5964 1369.87 512.2565"/><polyline class="cls-118" points="685.67 1018.5264 680.68 1011.8664 1361.54 501.1464 1366.53 507.8065"/><polyline class="cls-118" points="682.36 1014.1065 677.34 1007.4165 1358.1899 496.6965 1363.21 503.3565"/><polyline class="cls-70" points="679.01 1009.6564 674.02 1002.9964 1354.88 492.2465 1359.86 498.9064"/><polyline class="cls-70" points="675.67 1005.2065 670.68 998.5465 1351.53 487.7965 1356.52 494.4565"/><polyline class="cls-72" points="672.35 1000.7564 667.33 994.0865 1348.1899 483.3464 1353.2 490.0364"/><polyline class="cls-72" points="669 996.3065 664.02 989.6364 1344.87 478.8964 1349.86 485.5864"/><polyline class="cls-87" points="665.66 991.8565 660.67 985.1865 1341.52 474.4764 1346.51 481.1365"/><polyline class="cls-87" points="662.34 987.4265 657.33 980.7365 1338.1801 470.0264 1343.2 476.6865"/><polyline class="cls-65" points="659 982.9765 654.01 976.2864 1334.86 465.5765 1339.85 472.2365"/><polyline class="cls-124" points="655.65 978.5264 650.66 971.8664 1331.52 461.1165 1336.51 467.7864"/><polyline class="cls-148" points="652.34 974.0765 647.32 967.4165 1328.17 456.6665 1333.1899 463.3364"/><polyline class="cls-148" points="648.99 969.6264 644 962.9665 1324.86 452.2164 1329.85 458.9064"/><polyline class="cls-130" points="645.65 965.1765 640.66 958.5164 1321.51 447.7665 1326.5 454.4565"/><polyline class="cls-58" points="642.33 960.7265 637.31 954.0665 1318.17 443.3464 1323.1801 450.0065"/><polyline class="cls-58" points="638.99 956.3065 634 949.6164 1314.85 438.8964 1319.84 445.5565"/><polyline class="cls-138" points="635.64 951.8565 630.65 945.1665 1311.51 434.4465 1316.49 441.1065"/><polyline class="cls-92" points="632.32 947.4064 627.31 940.7464 1308.16 429.9965 1313.1801 436.6564"/><polyline class="cls-132" points="628.98 942.9565 623.99 936.2965 1304.84 425.5465 1309.83 432.2065"/><polyline class="cls-157" points="625.63 938.5064 620.65 931.8465 1301.5 421.0964 1306.49 427.7864"/><polyline class="cls-77" points="622.32 934.0565 617.3 927.3964 1298.15 416.6765 1303.17 423.3364"/><polyline class="cls-142" points="618.97 929.6065 613.98 922.9465 1294.84 412.2264 1299.83 418.8865"/><polyline class="cls-73" points="615.63 925.1765 610.64 918.4865 1291.49 407.7764 1296.48 414.4365"/><polyline class="cls-40" points="612.31 920.7265 607.29 914.0364 1288.15 403.3265 1293.17 409.9865"/><polyline class="cls-145" points="608.97 916.2764 603.98 909.6164 1284.83 398.8765 1289.8199 405.5364"/><polyline class="cls-154" points="605.62 911.8265 600.63 905.1665 1281.49 394.4265 1286.48 401.1165"/><polyline class="cls-60" points="602.31 907.3764 597.29 900.7165 1278.14 389.9764 1283.16 396.6564"/><polyline class="cls-30" points="598.96 902.9265 593.97 896.2664 1274.83 385.5465 1279.8101 392.2065"/><polyline class="cls-14" points="595.64 898.4765 590.63 891.8165 1271.48 381.0964 1276.47 387.7565"/><polyline class="cls-97" points="592.3 894.0565 587.28 887.3664 1268.14 376.6464 1273.15 383.3065"/><polyline class="cls-88" points="588.95 889.6065 583.97 882.9165 1264.8199 372.1965 1269.8101 378.8565"/><polyline class="cls-51" points="585.64 885.1564 580.62 878.4964 1261.47 367.7465 1266.49 374.4064"/><polyline class="cls-69" points="582.29 880.7065 577.28 874.0465 1258.13 363.2965 1263.15 369.9865"/><polyline class="cls-39" points="578.95 876.2564 573.96 869.5965 1254.8101 358.8464 1259.8 365.5364"/><polyline class="cls-9" points="575.63 871.8065 570.61 865.1464 1251.47 354.4265 1256.49 361.0864"/><polyline class="cls-33" points="572.29 867.3864 567.27 860.6965 1248.12 349.9764 1253.14 356.6365"/><polyline class="cls-78" points="568.94 862.9365 563.95 856.2464 1244.8101 345.5264 1249.8 352.1865"/><polyline class="cls-152" points="565.63 858.4865 560.61 851.8165 1241.46 341.0765 1246.48 347.7365"/><polyline class="cls-125" points="562.28 854.0364 557.26 847.3664 1238.12 336.6265 1243.13 343.2864"/><polyline class="cls-123" points="558.94 849.5765 553.95 842.9165 1234.8 332.1765 1239.79 338.8665"/><polyline class="cls-56" points="555.62 845.1264 550.6 838.4665 1231.46 327.7264 1236.47 334.4165"/><polyline class="cls-7" points="552.27 840.6765 547.26 834.0164 1228.11 323.2965 1233.13 329.9664"/><polyline class="cls-64" points="548.93 836.2564 543.94 829.5665 1224.79 318.8464 1229.78 325.5165"/><polyline class="cls-10" points="545.61 831.8065 540.6 825.1164 1221.45 314.3964 1226.47 321.0665"/><polyline class="cls-131" points="542.27 827.3565 537.25 820.6965 1218.1 309.9465 1223.12 316.6065"/><polyline class="cls-12" points="538.92 822.9064 533.93 816.2464 1214.79 305.4965 1219.78 312.1564"/><polyline class="cls-41" points="535.61 818.4565 530.59 811.7965 1211.4399 301.0465 1216.46 307.7365"/><polyline class="cls-150" points="532.26 814.0064 527.24 807.3465 1208.1 296.5964 1213.11 303.2864"/><polyline class="cls-94" points="528.92 809.5565 523.93 802.8964 1204.78 292.1765 1209.77 298.8364"/><polyline class="cls-23" points="525.6 805.1364 520.58 798.4465 1201.4399 287.7264 1206.45 294.3865"/><polyline class="cls-116" points="522.26 800.6865 517.24 793.9964 1198.09 283.2764 1203.11 289.9365"/><polyline class="cls-129" points="518.91 796.2365 513.92 789.5765 1194.77 278.8265 1199.76 285.4865"/><polyline class="cls-100" points="515.59 791.7864 510.58 785.1164 1191.4301 274.3765 1196.45 281.0665"/><polyline class="cls-66" points="512.25 787.3365 507.23 780.6665 1188.09 269.9265 1193.1 276.6165"/><polyline class="cls-66" points="508.9 782.8864 503.91 776.2165 1184.77 265.5065 1189.76 272.1665"/><polyline class="cls-3" points="505.59 778.4365 500.57 771.7664 1181.42 261.0565 1186.4399 267.7164"/><polyline class="cls-76" points="502.24 774.0064 497.25 767.3165 1178.11 256.6065 1183.1 263.2665"/><polyline class="cls-133" points="498.9 769.5565 493.91 762.8664 1174.76 252.1464 1179.75 258.8165"/><polyline class="cls-26" points="495.58 765.1065 490.56 758.4465 1171.42 247.6965 1176.4301 254.3665"/><polyline class="cls-63" points="492.24 760.6564 487.25 753.9965 1168.1 243.2465 1173.09 249.9365"/><polyline class="cls-16" points="488.89 756.2065 483.9 749.5465 1164.76 238.7965 1169.74 245.4865"/><polyline class="cls-16" points="485.57 751.7565 480.56 745.0964 1161.41 234.3765 1166.4301 241.0364"/><polyline class="cls-67" points="482.23 747.3364 477.24 740.6464 1158.09 229.9265 1163.08 236.5865"/><polyline class="cls-107" points="478.89 742.8865 473.9 736.1965 1154.75 225.4764 1159.74 232.1365"/><polyline class="cls-107" points="475.57 738.4365 470.55 731.7764 1151.4 221.0265 1156.42 227.6865"/><polyline class="cls-67" points="472.22 733.9865 467.23 727.3265 1148.09 216.5765 1153.08 223.2365"/><polyline class="cls-67" points="468.88 729.5364 463.89 722.8765 1144.74 212.1265 1149.73 218.8165"/><polyline class="cls-62" points="465.56 725.0864 460.54 718.4265 1141.4 207.6765 1146.42 214.3665"/><polyline class="cls-16" points="462.22 720.6365 457.23 713.9764 1138.08 203.2564 1143.0699 209.9165"/><polyline class="cls-108" points="458.87 716.2065 453.88 709.5165 1134.74 198.8065 1139.73 205.4665"/><polyline class="cls-63" points="455.56 711.7565 450.54 705.0665 1131.39 194.3565 1136.41 201.0165"/><polyline class="cls-63" points="452.21 707.3065 447.22 700.6464 1128.08 189.9065 1133.0601 196.5665"/><polyline class="cls-75" points="448.87 702.8565 443.88 696.1965 1124.73 185.4565 1129.72 192.1165"/><polyline class="cls-26" points="445.55 698.4064 440.53 691.7465 1121.39 181.0064 1126.4 187.6865"/><polyline class="cls-133" points="442.2 693.9565 437.22 687.2965 1118.0699 176.5465 1123.0601 183.2365"/><polyline class="cls-76" points="438.86 689.5065 433.87 682.8464 1114.72 172.1265 1119.71 178.7864"/><polyline class="cls-102" points="435.54 685.0864 430.53 678.3964 1111.38 167.6765 1116.4 174.3365"/><polyline class="cls-18" points="432.2 680.6365 427.21 673.9465 1108.0601 163.2264 1113.05 169.8865"/><polyline class="cls-79" points="428.85 676.1865 423.86 669.5264 1104.72 158.7765 1109.71 165.4365"/><polyline class="cls-79" points="425.54 671.7365 420.52 665.0765 1101.37 154.3265 1106.39 160.9865"/><polyline class="cls-66" points="422.19 667.2864 417.2 660.6265 1098.0601 149.8765 1103.05 156.5665"/><polyline class="cls-156" points="418.85 662.8364 413.86 656.1765 1094.71 145.4565 1099.7 152.1165"/><polyline class="cls-143" points="415.53 658.3865 410.51 651.7264 1091.37 141.0064 1096.38 147.6665"/><polyline class="cls-54" points="412.19 653.9664 407.2 647.2764 1088.05 136.5565 1093.04 143.2165"/><polyline class="cls-54" points="408.87 649.5165 403.85 642.8265 1084.71 132.1065 1089.72 138.7665"/><polyline class="cls-116" points="405.52 645.0665 400.51 638.3964 1081.36 127.6565 1086.38 134.3165"/><polyline class="cls-116" points="402.18 640.6065 397.19 633.9465 1078.04 123.2065 1083.03 129.8965"/><polyline class="cls-95" points="398.86 636.1564 393.85 629.4965 1074.7 118.7564 1079.72 125.4465"/><polyline class="cls-71" points="395.52 631.7065 390.5 625.0465 1071.35 114.3265 1076.37 120.9965"/><polyline class="cls-71" points="392.17 627.2565 387.18 620.5964 1068.04 109.8765 1073.03 116.5465"/><polyline class="cls-6" points="388.86 622.8364 383.84 616.1464 1064.6899 105.4265 1069.71 112.0865"/><polyline class="cls-150" points="385.51 618.3865 380.49 611.7264 1061.35 100.9764 1066.37 107.6365"/><polyline class="cls-2" points="382.17 613.9365 377.18 607.2764 1058.03 96.5265 1063.02 103.1865"/><polyline class="cls-117" points="378.85 609.4865 373.83 602.8265 1054.6899 92.0765 1059.7 98.7665"/><polyline class="cls-120" points="375.51 605.0364 370.49 598.3765 1051.34 87.6265 1056.36 94.3165"/><polyline class="cls-90" points="372.16 600.5864 367.17 593.9265 1048.03 83.2065 1053.01 89.8665"/><polyline class="cls-96" points="368.84 596.1665 363.83 589.4764 1044.6801 78.7564 1049.7 85.4165"/><polyline class="cls-35" points="365.5 591.7164 360.48 585.0264 1041.34 74.3065 1046.35 80.9665"/><polyline class="cls-10" points="362.15 587.2665 357.17 580.6065 1038.02 69.8565 1043.01 76.5165"/><polyline class="cls-37" points="358.84 582.8165 353.82 576.1464 1034.67 65.4065 1039.6899 72.0665"/><polyline class="cls-15" points="355.49 578.3665 350.48 571.6965 1031.33 60.9565 1036.35 67.6465"/><polyline class="cls-53" points="352.15 573.9165 347.16 567.2465 1028.01 56.5064 1033 63.1965"/><polyline class="cls-4" points="348.83 569.4565 343.81 562.7965 1024.67 52.0865 1029.6899 58.7465"/><polyline class="cls-57" points="345.49 565.0364 340.47 558.3464 1021.32 47.6365 1026.34 54.2965"/><polyline class="cls-57" points="342.14 560.5864 337.15 553.8964 1018.01 43.1765 1023 49.8465"/><polyline class="cls-135" points="338.83 556.1365 333.81 549.4764 1014.66 38.7264 1019.68 45.3965"/><polyline class="cls-151" points="335.48 551.6865 330.46 545.0264 1011.32 34.2765 1016.33 40.9465"/><polyline class="cls-139" points="332.14 547.2365 327.15 540.5765 1008 29.8265 1012.99 36.5165"/><polyline class="cls-93" points="328.82 542.7864 323.8 536.1265 1004.66 25.4065 1009.67 32.0665"/><polyline class="cls-93" points="325.47 538.3364 320.49 531.6765 1001.31 20.9565 1006.33 27.6165"/><polyline class="cls-19" points="322.13 533.9165 317.14 527.2264 997.99 16.5064 1002.98 23.1665"/><polyline class="cls-22" points="318.81 529.4664 313.8 522.7764 994.65 12.0565 999.67 18.7165"/><polyline class="cls-5" points="315.47 525.0165 310.48 518.3565 991.33 7.6065 996.32 14.2665"/><polyline class="cls-5" points="312.12 520.5665 307.13 513.9064 987.99 3.1565 992.98 9.8465"/><polyline class="cls-122" points="308.81 516.1165 303.79 509.4565 984.64 -1.2935 989.66 5.3965"/><polyline class="cls-85" points="305.46 511.6665 300.47 505.0065 981.33 -5.7136 986.31 .9465"/><polyline class="cls-85" points="302.12 507.2164 297.13 500.5465 977.98 -10.1635 982.97 -3.5035"/><polyline class="cls-28" points="298.8 502.7864 293.78 496.0964 974.64 -14.6135 979.65 -7.9535"/><polyline class="cls-149" points="295.46 498.3364 290.47 491.6765 971.32 -19.0635 976.31 -12.4035"/><polyline class="cls-149" points="292.11 493.8865 287.12 487.2264 967.97 -23.5135 972.96 -16.8535"/><polyline class="cls-24" points="288.79 489.4365 283.78 482.7764 964.63 -27.9635 969.65 -21.2835"/><polyline class="cls-119" points="285.45 484.9865 280.46 478.3265 961.31 -32.4235 966.3 -25.7335"/><polyline class="cls-34" points="282.1 480.5364 277.11 473.8765 957.97 -36.8435 962.96 -30.1835"/><polyline class="cls-84" points="278.79 476.1165 273.77 469.4265 954.62 -41.2935 959.64 -34.6335"/><polyline class="cls-38" points="275.44 471.6665 270.45 464.9764 951.31 -45.7435 956.3 -39.0835"/><polyline class="cls-114" points="272.1 467.2164 267.11 460.5565 947.96 -50.1935 952.95 -43.5335"/><polyline class="cls-144" points="268.78 462.7665 263.76 456.1065 944.62 -54.6435 949.63 -47.9835"/><polyline class="cls-27" points="265.44 458.3165 260.45 451.6564 941.3 -59.0935 946.29 -52.4035"/><polyline class="cls-82" points="262.09 453.8665 257.1 447.2065 937.96 -63.5435 942.94 -56.8535"/><polyline class="cls-147" points="258.77 449.4165 253.76 442.7565 934.61 -67.9635 939.63 -61.3035"/><polyline class="cls-103" points="255.43 444.9965 254.61 443.8565 935.46 -66.8635 936.28 -65.7535"/></g></g></svg>