<svg xmlns="http://www.w3.org/2000/svg" viewBox="0 0 108.31 123.29"><defs><style>.cls-1{fill:#006d91;}.cls-2{fill:#e2462f;}</style></defs><title>CLC-Logo</title><g id="Layer_2" data-name="Layer 2"><g id="Layer_1-2" data-name="Layer 1"><polygon class="cls-1" points="108.31 0 104.06 4.23 4.26 4.23 0.04 0 108.31 0"/><path class="cls-1" d="M27.27,19.16a22.64,22.64,0,0,1,11,2.76v5.61a19,19,0,0,0-11.07-3.62c-8.91,0-15.18,6.7-15.18,15.4S18.31,54.7,27.65,54.7a17.62,17.62,0,0,0,11.23-4v5.67a22,22,0,0,1-11.5,3c-11.88,0-20.47-8.59-20.47-20C6.91,28.29,15,19.16,27.27,19.16Z"/><path class="cls-1" d="M87.75,19.16a22.64,22.64,0,0,1,11,2.76v5.61A19,19,0,0,0,87.7,23.91c-8.91,0-15.18,6.7-15.18,15.4S78.79,54.7,88.13,54.7a17.62,17.62,0,0,0,11.23-4v5.67a22,22,0,0,1-11.5,3c-11.88,0-20.47-8.59-20.47-20C67.39,28.29,75.49,19.16,87.75,19.16Z"/><path class="cls-1" d="M65.46,54.21H51V19.76H45.9V58.85H69.46A25,25,0,0,1,65.46,54.21Z"/><path class="cls-2" d="M13.42,71.76h1L17.3,78.4H16l-.61-1.52H12.46l-.6,1.52H10.54Zm1.5,4.1-1-2.7-1,2.7Z"/><path class="cls-2" d="M21.54,71.76h2.61a4.16,4.16,0,0,1,1.27.2,3.21,3.21,0,0,1,1.08.61,3.09,3.09,0,0,1,.75,1,3.67,3.67,0,0,1,.28,1.47,3.07,3.07,0,0,1-.33,1.47,3,3,0,0,1-.83,1,3.36,3.36,0,0,1-1.13.61A3.88,3.88,0,0,1,24,78.4H21.54Zm2.06,5.57a4.29,4.29,0,0,0,1-.13,2.51,2.51,0,0,0,.86-.39,1.81,1.81,0,0,0,.58-.7,2.31,2.31,0,0,0,.21-1,2.46,2.46,0,0,0-.19-1,1.76,1.76,0,0,0-.52-.7,2.18,2.18,0,0,0-.79-.4,3.84,3.84,0,0,0-1-.12H22.72v4.5Z"/><path class="cls-2" d="M31.84,71.76H33.2l1.81,5,1.87-5h1.27L35.47,78.4h-1Z"/><path class="cls-2" d="M44.45,71.76h1l2.86,6.64H47l-.62-1.52H43.48l-.6,1.52H41.56Zm1.5,4.1-1-2.7-1,2.7Z"/><path class="cls-2" d="M53.07,71.76h1.57l3.21,4.93h0V71.76h1.18V78.4h-1.5l-3.28-5.1h0v5.1H53.07Z"/><path class="cls-2" d="M69.35,73.31a2.06,2.06,0,0,0-.71-.52,1.87,1.87,0,0,0-.69-.13,2.34,2.34,0,0,0-.93.18,2.05,2.05,0,0,0-.72.51,2.2,2.2,0,0,0-.46.75,2.6,2.6,0,0,0-.17.93,2.8,2.8,0,0,0,.17,1,2.33,2.33,0,0,0,.46.78,2.22,2.22,0,0,0,.72.52,2.34,2.34,0,0,0,.93.19,1.68,1.68,0,0,0,.78-.2,2,2,0,0,0,.71-.61l1,.69a2.56,2.56,0,0,1-1.1.9,3.37,3.37,0,0,1-1.38.28,4,4,0,0,1-1.41-.24,3.16,3.16,0,0,1-1.83-1.8,3.58,3.58,0,0,1-.26-1.41,3.71,3.71,0,0,1,.26-1.45,3.18,3.18,0,0,1,.72-1.11,3.07,3.07,0,0,1,1.11-.71,3.8,3.8,0,0,1,1.41-.25,3.2,3.2,0,0,1,1.25.24,2.9,2.9,0,0,1,1.08.81Z"/><path class="cls-2" d="M75.54,71.76h1.18V78.4H75.54Z"/><path class="cls-2" d="M82.74,71.76H84.3l3.22,4.93h0V71.76h1.18V78.4h-1.5l-3.28-5.1h0v5.1H82.74Z"/><path class="cls-2" d="M99.42,77.91a5.7,5.7,0,0,1-2.75.65,4,4,0,0,1-1.41-.24,3.16,3.16,0,0,1-1.1-.71,3.08,3.08,0,0,1-.73-1.09,3.58,3.58,0,0,1-.26-1.41,3.71,3.71,0,0,1,.26-1.45,3.07,3.07,0,0,1,.73-1.11,3,3,0,0,1,1.1-.71,3.8,3.8,0,0,1,1.41-.25,5.49,5.49,0,0,1,1.43.18,3,3,0,0,1,1.19.65l-.87.88a2.26,2.26,0,0,0-.78-.47,2.55,2.55,0,0,0-1-.17,2.34,2.34,0,0,0-.93.18,2.05,2.05,0,0,0-.72.51,2.2,2.2,0,0,0-.46.75,2.6,2.6,0,0,0-.17.93,2.8,2.8,0,0,0,.17,1,2.33,2.33,0,0,0,.46.78,2.22,2.22,0,0,0,.72.52,2.34,2.34,0,0,0,.93.19,3.89,3.89,0,0,0,.85-.09,2.22,2.22,0,0,0,.71-.26V75.58H96.88V74.51h2.54Z"/><path class="cls-2" d="M11.28,84.26h2.61a4.16,4.16,0,0,1,1.27.2,3.21,3.21,0,0,1,1.08.61,3.09,3.09,0,0,1,.75,1,3.67,3.67,0,0,1,.28,1.47,3.07,3.07,0,0,1-.33,1.47,3,3,0,0,1-.83,1,3.31,3.31,0,0,1-1.14.61,3.77,3.77,0,0,1-1.22.21H11.28Zm2.06,5.57a4.29,4.29,0,0,0,1-.13,2.51,2.51,0,0,0,.86-.39,1.81,1.81,0,0,0,.58-.7,2.31,2.31,0,0,0,.21-1,2.46,2.46,0,0,0-.19-1,1.76,1.76,0,0,0-.52-.7,2.18,2.18,0,0,0-.79-.4,3.84,3.84,0,0,0-1-.12H12.46v4.5Z"/><path class="cls-2" d="M21.5,84.26h4.39v1.07H22.68V87h3V88h-3v1.8h3.38V90.9H21.5Z"/><path class="cls-2" d="M31.05,84.26h1.8l1.77,4.65,1.79-4.65h1.78V90.9H37.07V85.38h0L35,90.9h-.82l-2-5.52h0V90.9H31.05Z"/><path class="cls-2" d="M42.48,87.61a3.9,3.9,0,0,1,.26-1.45,3.2,3.2,0,0,1,.73-1.11,3.11,3.11,0,0,1,1.1-.71,4.32,4.32,0,0,1,2.84,0,3.17,3.17,0,0,1,1.12.7,3.26,3.26,0,0,1,.73,1.1,3.94,3.94,0,0,1,.26,1.45A3.73,3.73,0,0,1,49.26,89a3.23,3.23,0,0,1-1.85,1.82,3.86,3.86,0,0,1-1.42.26,4,4,0,0,1-1.42-.24,3.26,3.26,0,0,1-1.1-.71A3.21,3.21,0,0,1,42.74,89,3.77,3.77,0,0,1,42.48,87.61Zm1.24-.08a2.8,2.8,0,0,0,.16,1,2.28,2.28,0,0,0,3,1.3,2.22,2.22,0,0,0,.72-.52,2.36,2.36,0,0,0,.47-.78,2.8,2.8,0,0,0,.16-1,2.6,2.6,0,0,0-.16-.93,2.22,2.22,0,0,0-.47-.75,2.05,2.05,0,0,0-.72-.51,2.52,2.52,0,0,0-1.87,0,2.15,2.15,0,0,0-.72.51,2.2,2.2,0,0,0-.46.75A2.6,2.6,0,0,0,43.72,87.53Z"/><path class="cls-2" d="M58.71,85.81a2,2,0,0,0-.71-.52,1.87,1.87,0,0,0-.69-.13,2.34,2.34,0,0,0-.93.18,2.05,2.05,0,0,0-.72.51,2.2,2.2,0,0,0-.46.75,2.6,2.6,0,0,0-.17.93,2.8,2.8,0,0,0,.17,1,2.33,2.33,0,0,0,.46.78,2.22,2.22,0,0,0,.72.52,2.34,2.34,0,0,0,.93.19,1.68,1.68,0,0,0,.78-.2,2,2,0,0,0,.71-.61l1,.69a2.56,2.56,0,0,1-1.1.9,3.37,3.37,0,0,1-1.38.28,4,4,0,0,1-1.41-.24A3.24,3.24,0,0,1,54.06,89a3.58,3.58,0,0,1-.26-1.41,3.71,3.71,0,0,1,.26-1.45,3.07,3.07,0,0,1,.73-1.11,2.94,2.94,0,0,1,1.1-.71,3.8,3.8,0,0,1,1.41-.25,3.2,3.2,0,0,1,1.25.24,2.9,2.9,0,0,1,1.08.81Z"/><path class="cls-2" d="M64.35,84.26h2.3a4.73,4.73,0,0,1,.93.09,2.49,2.49,0,0,1,.79.3,1.7,1.7,0,0,1,.55.58,1.88,1.88,0,0,1,.21.93,1.82,1.82,0,0,1-.4,1.21,1.69,1.69,0,0,1-1.14.59l1.76,2.94H67.93l-1.54-2.82h-.86V90.9H64.35Zm2.1,2.81.5,0a1.71,1.71,0,0,0,.47-.12.75.75,0,0,0,.34-.27,1,1,0,0,0,0-1,.74.74,0,0,0-.32-.26A1.5,1.5,0,0,0,67,85.3l-.46,0h-1v1.8Z"/><path class="cls-2" d="M76.36,84.26h1l2.86,6.64H78.89l-.62-1.52H75.39l-.6,1.52H73.47Zm1.5,4.1-1-2.7-1,2.7Z"/><path class="cls-2" d="M88.92,85.81a2,2,0,0,0-.71-.52,1.8,1.8,0,0,0-.69-.13,2.34,2.34,0,0,0-.93.18,2.05,2.05,0,0,0-.72.51,2.2,2.2,0,0,0-.46.75,2.6,2.6,0,0,0-.16.93,2.8,2.8,0,0,0,.16,1,2.33,2.33,0,0,0,.46.78,2.22,2.22,0,0,0,.72.52,2.34,2.34,0,0,0,.93.19,1.75,1.75,0,0,0,.79-.2,2,2,0,0,0,.7-.61l1,.69a2.56,2.56,0,0,1-1.1.9,3.37,3.37,0,0,1-1.38.28,4,4,0,0,1-1.41-.24,3.26,3.26,0,0,1-1.1-.71A3.21,3.21,0,0,1,84.27,89,3.77,3.77,0,0,1,84,87.61a3.9,3.9,0,0,1,.26-1.45A3.2,3.2,0,0,1,85,85.05a3.11,3.11,0,0,1,1.1-.71,3.8,3.8,0,0,1,1.41-.25,3.25,3.25,0,0,1,1.26.24,3,3,0,0,1,1.07.81Z"/><path class="cls-2" d="M96.16,88.05l-2.49-3.79h1.48l1.63,2.64,1.65-2.64h1.4l-2.49,3.79V90.9H96.16Z"/><path class="cls-2" d="M12.63,97.83h-2V96.76h5.25v1.07h-2v5.57H12.63Z"/><path class="cls-2" d="M18.54,96.76h1.18V99.4h3.11V96.76H24v6.64H22.83v-2.93H19.72v2.93H18.54Z"/><path class="cls-2" d="M27.43,96.76h2.31a4.7,4.7,0,0,1,.92.09,2.41,2.41,0,0,1,.79.3,1.61,1.61,0,0,1,.55.58,1.88,1.88,0,0,1,.21.93,1.82,1.82,0,0,1-.4,1.21,1.67,1.67,0,0,1-1.14.59l1.77,2.94H31l-1.54-2.82h-.86v2.82H27.43Zm2.1,2.81.51,0a1.73,1.73,0,0,0,.46-.12.75.75,0,0,0,.34-.27,1,1,0,0,0,0-1,.74.74,0,0,0-.32-.26,1.43,1.43,0,0,0-.43-.12l-.47,0h-1v1.8Z"/><path class="cls-2" d="M34.86,100.11a3.71,3.71,0,0,1,.27-1.45A3.12,3.12,0,0,1,37,96.84a4.29,4.29,0,0,1,2.83,0,3,3,0,0,1,1.12.7,3.12,3.12,0,0,1,.73,1.1,3.75,3.75,0,0,1,.26,1.45,3.54,3.54,0,0,1-.26,1.41,3.21,3.21,0,0,1-.73,1.1,3.18,3.18,0,0,1-1.12.72,3.82,3.82,0,0,1-1.42.26,4,4,0,0,1-1.41-.24,3.2,3.2,0,0,1-1.11-.71,3.05,3.05,0,0,1-.72-1.09A3.58,3.58,0,0,1,34.86,100.11ZM36.1,100a3.05,3.05,0,0,0,.16,1,2.36,2.36,0,0,0,.47.78,2.22,2.22,0,0,0,.72.52,2.3,2.3,0,0,0,.93.19,2.39,2.39,0,0,0,.94-.19,2.22,2.22,0,0,0,.72-.52,2.33,2.33,0,0,0,.46-.78,2.8,2.8,0,0,0,.17-1,2.6,2.6,0,0,0-.17-.93,2.2,2.2,0,0,0-.46-.75,2.05,2.05,0,0,0-.72-.51,2.39,2.39,0,0,0-.94-.18,2.3,2.3,0,0,0-.93.18,2.05,2.05,0,0,0-.72.51,2.22,2.22,0,0,0-.47.75A2.84,2.84,0,0,0,36.1,100Z"/><path class="cls-2" d="M50.05,101a2.67,2.67,0,0,1-.21,1.08,2.26,2.26,0,0,1-.56.82,2.33,2.33,0,0,1-.84.52,3.21,3.21,0,0,1-2.12,0,2.47,2.47,0,0,1-.85-.52,2.26,2.26,0,0,1-.56-.82,2.67,2.67,0,0,1-.2-1.08v-4.2h1.18v4.16a1.89,1.89,0,0,0,.07.51,1.52,1.52,0,0,0,.25.49,1.3,1.3,0,0,0,.46.37,1.76,1.76,0,0,0,1.42,0,1.3,1.3,0,0,0,.46-.37,1.52,1.52,0,0,0,.25-.49,2.4,2.4,0,0,0,.07-.51V96.76h1.18Z"/><path class="cls-2" d="M59.3,102.91a5.73,5.73,0,0,1-2.75.65,4,4,0,0,1-1.41-.24,3.22,3.22,0,0,1-1.84-1.8,3.77,3.77,0,0,1-.26-1.41,3.9,3.9,0,0,1,.26-1.45A3.2,3.2,0,0,1,54,97.55a3.07,3.07,0,0,1,1.11-.71,3.8,3.8,0,0,1,1.41-.25,5.42,5.42,0,0,1,1.42.18,2.89,2.89,0,0,1,1.19.65l-.87.88a2.21,2.21,0,0,0-.77-.47,2.59,2.59,0,0,0-1-.17,2.35,2.35,0,0,0-.94.18,2.11,2.11,0,0,0-.71.51,2.22,2.22,0,0,0-.47.75,2.6,2.6,0,0,0-.16.93,2.8,2.8,0,0,0,.16,1,2.36,2.36,0,0,0,.47.78,2.29,2.29,0,0,0,.71.52,2.35,2.35,0,0,0,.94.19,3.89,3.89,0,0,0,.85-.09,2.16,2.16,0,0,0,.7-.26v-1.57H56.75V99.51H59.3Z"/><path class="cls-2" d="M62.62,96.76H63.8V99.4h3.11V96.76h1.18v6.64H66.91v-2.93H63.8v2.93H62.62Z"/><path class="cls-2" d="M76,96.76h1.18v5.57H80v1.07H76Z"/><path class="cls-2" d="M85.31,96.76h1l2.86,6.64H87.84l-.62-1.52H84.35l-.6,1.52H82.42Zm1.5,4.1-1-2.7-1,2.7Z"/><path class="cls-2" d="M90.51,96.76H91.8l1.25,4.78h0l1.49-4.78h1.16l1.46,4.78h0l1.3-4.78h1.2l-1.93,6.64H96.65l-1.54-5.06h0l-1.54,5.06H92.47Z"/><polygon class="cls-2" points="0 123.29 4.25 119.06 104.05 119.06 108.27 123.29 0 123.29"/></g></g></svg>