<svg xmlns="http://www.w3.org/2000/svg" width="114.1" height="24.17" viewBox="0 0 114.1 24.17">
    <title>Gensler</title>
    <g fill="#EE3224">
      <path d="M84.28,15.19c0-5.44,3.59-8.78,8.27-8.78,5.15,0,8.56,4,7.94,10.43H89.83a3.68,3.68,0,0,0,4.08,3.65,8.12,8.12,0,0,0,4.16-1.32l1.71,3.39a13.92,13.92,0,0,1-6.68,1.56C87.54,24.11,84.28,20.61,84.28,15.19Zm11.25-1.7c0-1.94-1-3.45-2.84-3.45s-2.83,1.61-2.83,3.45Z"></path>
      <path d="M52.94,23.59V13.06a2,2,0,0,0-2.25-2.23,4.05,4.05,0,0,0-2.42,1.23V23.59H42.79V6.92h5.32V9A5.75,5.75,0,0,1,52.57,6.4a5.57,5.57,0,0,1,5.84,5.87V23.59Z"></path>
      <rect x="76.95" y="0.13" width="5.47" height="23.46"></rect>
      <path d="M113.3,11.25a8.07,8.07,0,0,0-2-.31,4.32,4.32,0,0,0-3.35,1.67v11h-5.47V6.92h5.32V9.09a5.16,5.16,0,0,1,4.75-2.61,6.62,6.62,0,0,1,1.54.18Z"></path>
      <path d="M24.47,15.19c0-5.44,3.59-8.78,8.27-8.78,5.15,0,8.56,4,7.94,10.43H30a3.68,3.68,0,0,0,4.08,3.65,8.13,8.13,0,0,0,4.16-1.32L40,22.55a13.9,13.9,0,0,1-6.67,1.56C27.72,24.11,24.47,20.61,24.47,15.19Zm11.24-1.7c0-1.94-1-3.45-2.84-3.45S30,11.64,30,13.48Z"></path>
      <path d="M66.8,24.11A15.62,15.62,0,0,1,60,22.73l1.63-3.62a9.23,9.23,0,0,0,4.54,1.32c1.93,0,2.71-.7,2.71-1.42s-.57-1.1-2.26-1.63c-3.66-1.15-5.74-2.67-5.74-5.63,0-2.71,2.21-5.34,6.69-5.34a14.78,14.78,0,0,1,6.74,1.45l-1.53,3.5a8.3,8.3,0,0,0-4.21-1.27c-1.49,0-2.13.61-2.13,1.36,0,1,.86,1.3,2.65,1.85,4.56,1.39,5.62,3.28,5.62,5.42,0,2.79-2.4,5.4-7.88,5.4"></path>
      <path d="M17.86,21.22c-.31.35-2,2.76-6.42,2.91C5,24.37,0,19.49,0,11.9S5.43-.25,11.94,0a12.11,12.11,0,0,1,9.42,4.86L16.93,7.69c-.41-.64-2-3.21-5.13-3.21-3.44,0-5.74,3-5.74,7.63,0,4.15,1.91,7.94,5.74,7.94s5.3-3.5,5.33-5.49H12V10.82H22.37V23.59H18.18l-.28-2.36Z"></path>
    </g>
  </svg>