<svg version="1.1" id="Layer_1" xmlns:x="ns_extend;" xmlns:i="ns_ai;" xmlns:graph="ns_graphs;" xmlns="http://www.w3.org/2000/svg" xmlns:xlink="http://www.w3.org/1999/xlink" x="0px" y="0px" viewBox="0 0 1274 100" style="enable-background:new 0 0 1274 100" xml:space="preserve"><style type="text/css">.st0{fill-rule:evenodd;clip-rule:evenodd;fill:#FFFFFF;}</style><metadata><sfw xmlns="ns_sfw;"><slices/><sliceSourceBounds bottomLeftOrigin="true" height="100" width="1274" x="-971.9" y="-207.8"/></sfw></metadata><g><path class="st0" d="M456.9,58.5L426,16.4h-14.8v66.9h14.1V39.9l31.8,43.4h13.8V16.4h-14.1V58.5z M389.1,37.9
           c0-12.5-8.4-21.5-22.5-21.5h-31.2v66.9h14.1V59.5h10.3L373,83.3h16.4l-14.8-25.4C383.6,55.9,389.7,47.3,389.1,37.9z M364.6,47.3
           h-14.8V28.9h14.8h1c5.1,0,9,4.2,9,9c0,0.3,0,0.6,0,1C374,44.1,369.5,47.6,364.6,47.3z M495.8,83.3H510V16.4h-14.1V83.3z M0,0v37.6
           l49.8,49.8l49.8-49.8V0L49.8,49.8L0,0z M100,100V62.4L62.4,100H100z M186.2,56.9l-16.4-40.5h-19.9v66.9H164V36.7l19,46.6h6.1
           l19-46.6v46.6h14.1V16.4h-19.9L186.2,56.9z M279.1,15.1c-19.3,0-35,15.8-35,35c0,19.3,15.8,35,35,35c19.3,0,35-15.8,35-35
           C313.8,30.5,298.4,15.1,279.1,15.1z M299,49.8c0,12.5-8,21.9-20.3,21.9s-20.3-9.3-20.3-21.9s8-21.9,20.3-21.9S299,37.3,299,49.8z
            M0,100h37.6L0,62.4V100z M995.5,34.7c0-4.2,3.5-6.8,9.6-6.8c7.1,0,13.8,2.6,19.3,7.4l8-10.3c-7.1-6.1-16.4-9.6-25.7-9.3
           c-15.8,0-25.4,9.3-25.4,20.3c0,25.1,38.6,17,38.6,28.9c0,3.9-3.9,7.4-11.6,7.4c-8,0-15.8-3.2-21.2-9L979.4,74
           c7.7,7.4,17.7,10.9,28.3,10.6c18,0,26.7-9.3,26.7-21.5C1033.8,37.9,995.5,45.3,995.5,34.7z M1101,56.3c0,9.3-5.5,15.8-15.8,15.8
           c-1,0-1.6,0-2.6,0c-8-0.6-13.8-7.7-13.2-15.8V16.4H1055v40.2c0,16.4,9.7,27.7,30.2,27.7c20.6,0,30.2-11.3,30.2-28V16.4H1101V56.3z
            M1154.3,16.4h-14.2v66.9h42.4V70.7h-28.3V16.4z M580.4,58.5l-30.9-42.1H535v66.9h14.1V39.9L581,83.3h13.5V16.4h-14.1V58.5z
            M1190,28.9h19.6v54.3h14.2V28.9h19.3V16.4h-53.4v12.5H1190z M648.2,58.8h17.7v8c-3.9,3.2-9,5.1-14.1,5.1h-1.3
           c-11.6-0.6-20.3-10.3-19.6-21.9c0-0.3,0-1,0-1.3c0-11.6,9.3-20.6,20.9-20.6c6.4,0,12.2,3.2,15.8,8.7l11.9-6.4
           c-5.8-9.6-16.4-15.4-27.7-14.8c-19.6,0-35.7,13.5-35.7,34.7c0,21.2,16.1,34.7,35.7,34.7c10.9,0.3,21.2-4.5,28.3-12.5V46.9h-31.8
           V58.8z M944.4,58.5l-30.9-42.1H899v66.9h14.1V39.9L945,83.3h13.8V16.4h-14.1L944.4,58.5z M741.8,48.6c0-11.6,9.6-20.6,20.9-20.6
           c6.8,0,12.5,3.9,15.8,9.6l12.2-6.1c-5.5-10.3-16.4-16.7-28-16.4c-19.9,0-35.7,14.1-35.7,34.7c0,20.6,15.8,34.7,35.7,34.7
           c11.6,0.3,22.5-6.1,28-16.4l-12.2-5.8c-2.9,5.8-9,9.6-15.8,9.6h-1.3c-11.6-0.6-20.3-10.3-19.6-21.9
           C741.8,49.5,741.8,49.2,741.8,48.6z M842.4,15.1c-19.6,0-35,15.8-35,35c0,19.3,15.8,35,35,35c19.3,0,35.1-15.8,35.1-35
           C877.5,30.9,862.1,15.1,842.4,15.1z M842.4,72c-12.2,0-20.3-9.3-20.3-21.9c0-12.5,8-21.9,20.3-21.9c12.2,0,20.3,9.3,20.3,21.9
           C862.7,62.7,854.7,72,842.4,72z M1265.6,0c-4.5,0-8.4,3.9-8.4,8.4c0,4.5,3.9,8.4,8.4,8.4s8.4-3.9,8.4-8.4
           C1274,3.5,1270.4,0,1265.6,0z M1269.8,13.2l-2.6-3.9c1-0.3,2.3-1.3,2.3-2.9c0-1.6-1.3-3.2-3.2-3.2h-4.2v9.6h1.9V9.6h1.3l2.2,3.5
           H1269.8c-1.3,1-2.6,1.6-4.2,1.6c-3.5,0-6.4-2.9-6.4-6.4c0-3.5,2.9-6.4,6.4-6.4s6.4,2.9,6.4,6.4C1272,10.3,1271.4,11.9,1269.8,13.2z
            M1266.2,7.7h-2.2V5.1h2.2c0.6,0,1.3,0.6,1.3,1.3C1267.5,7.1,1266.9,7.7,1266.2,7.7z"/></g></svg>